  0
SECTION
  2
HEADER
  9
$ACADVER
  1
AC1021
  9
$ACADMAINTVER
 70
    50
  9
$DWGCODEPAGE
  3
ANSI_1252
  9
$INSBASE
 10
0.0
 20
0.0
 30
0.0
  9
$EXTMIN
 10
301921.057
 20
5260295.674
 30
60.505
  9
$EXTMAX
 10
319633.644
 20
5262169.695
 30
159.039
  9
$LIMMIN
 10
301921.057
 20
5260295.674
  9
$LIMMAX
 10
319633.644
 20
5262169.695
  9
$ORTHOMODE
 70
     0
  9
$REGENMODE
 70
     1
  9
$FILLMODE
 70
     1
  9
$QTEXTMODE
 70
     0
  9
$MIRRTEXT
 70
     1
  9
$LTSCALE
 40
1.0
  9
$ATTMODE
 70
     1
  9
$TEXTSIZE
 40
0.2
  9
$TRACEWID
 40
0.05
  9
$TEXTSTYLE
  7
MONOTEXT
  9
$CLAYER
  8
0
  9
$CELTYPE
  6
ByLayer
  9
$CECOLOR
 62
256
  9
$CELTSCALE
 40
1.0
  9
$DISPSILH
 70
     0
  9
$DIMSCALE
 40
1.0
  9
$DIMASZ
 40
0.18
  9
$DIMEXO
 40
0.0625
  9
$DIMDLI
 40
0.38
  9
$DIMRND
 40
0.0
  9
$DIMDLE
 40
0.0
  9
$DIMEXE
 40
0.18
  9
$DIMTP
 40
0.0
  9
$DIMTM
 40
0.0
  9
$DIMTXT
 40
0.18
  9
$DIMCEN
 40
0.09
  9
$DIMTSZ
 40
0.0
  9
$DIMTOL
 70
     0
  9
$DIMLIM
 70
     0
  9
$DIMTIH
 70
     1
  9
$DIMTOH
 70
     1
  9
$DIMSE1
 70
     0
  9
$DIMSE2
 70
     0
  9
$DIMTAD
 70
     0
  9
$DIMZIN
 70
     0
  9
$DIMBLK
  1

  9
$DIMASO
 70
     1
  9
$DIMSHO
 70
     0
  9
$DIMPOST
  1

  9
$DIMAPOST
  1

  9
$DIMALT
 70
     0
  9
$DIMALTD
 70
     2
  9
$DIMALTF
 40
25.4
  9
$DIMLFAC
 40
1.0
  9
$DIMTOFL
 70
     0
  9
$DIMTVP
 40
0.0
  9
$DIMTIX
 70
     0
  9
$DIMSOXD
 70
     0
  9
$DIMSAH
 70
     0
  9
$DIMBLK1
  1

  9
$DIMBLK2
  1

  9
$DIMSTYLE
  2
STANDARD
  9
$DIMCLRD
 70
     0
  9
$DIMCLRE
 70
     0
  9
$DIMCLRT
 70
     0
  9
$DIMTFAC
 40
1.0
  9
$DIMGAP
 40
0.09
  9
$DIMJUST
 70
     0
  9
$DIMSD1
 70
     0
  9
$DIMSD2
 70
     0
  9
$DIMTOLJ
 70
     1
  9
$DIMTZIN
 70
     0
  9
$DIMALTZ
 70
     0
  9
$DIMALTTZ
 70
     0
  9
$DIMUPT
 70
     0
  9
$DIMDEC
 70
     4
  9
$DIMTDEC
 70
     4
  9
$DIMALTU
 70
     2
  9
$DIMALTTD
 70
     2
  9
$DIMTXSTY
  7
MONOTEXT
  9
$DIMAUNIT
 70
     1
  9
$DIMADEC
 70
     0
  9
$DIMALTRND
 40
0.0
  9
$DIMAZIN
 70
     0
  9
$DIMDSEP
 70
     0
  9
$DIMATFIT
 70
     3
  9
$DIMFRAC
 70
     0
  9
$DIMLDRBLK
  1

  9
$DIMLUNIT
 70
     2
  9
$DIMLWD
 70
     0
  9
$DIMLWE
 70
     0
  9
$DIMTMOVE
 70
     0
  9
$LUNITS
 70
     6
  9
$LUPREC
 70
     4
  9
$SKETCHINC
 40
0.1
  9
$FILLETRAD
 40
0.0
  9
$AUNITS
 70
     1
  9
$AUPREC
 70
     0
  9
$MENU
  1
ACAD
  9
$ELEVATION
 40
0.0
  9
$PELEVATION
 40
0.0
  9
$THICKNESS
 40
0.0
  9
$LIMCHECK
 70
     0
  9
$CHAMFERA
 40
0.0
  9
$CHAMFERB
 40
0.0
  9
$CHAMFERC
 40
0.0
  9
$CHAMFERD
 40
0.0
  9
$SKPOLY
 70
     0
  9
$TDCREATE
 40
2461061.233229
  9
$TDUCREATE
 40
0.000000000
  9
$TDUPDATE
 40
0.000000000
  9
$TDUUPDATE
 40
2461061.233229
  9
$TDINDWG
 40
0.000000000
  9
$TDUSRTIMER
 40
0.000000000
  9
$USRTIMER
 70
     1
  9
$ANGBASE
 50
0.0
  9
$ANGDIR
 70
     0
  9
$PDMODE
 70
     0
  9
$PDSIZE
 40
0.0
  9
$PLINEWID
 40
0.0
  9
$SPLFRAME
 70
     0
  9
$SPLINETYPE
 70
     6
  9
$SPLINESEGS
 70
     8
  9
$HANDSEED
  5
2000000
  9
$SURFTAB1
 70
     6
  9
$SURFTAB2
 70
     6
  9
$SURFTYPE
 70
     6
  9
$SURFU
 70
     6
  9
$SURFV
 70
     6
  9
$UCSBASE
  2

  9
$UCSORG
 10
0.0
 20
0.0
 30
0.0
  9
$UCSXDIR
 10
1.0
 20
0.0
 30
0.0
  9
$UCSYDIR
 10
0.0
 20
1.0
 30
0.0
  9
$UCSORTHOREF
  2

  9
$UCSORTHOVIEW
 70
     0
  9
$UCSORGTOP
 10
0.0
 20
0.0
 30
0.0
  9
$UCSORGBOTTOM
 10
0.0
 20
0.0
 30
0.0
  9
$UCSORGLEFT
 10
0.0
 20
0.0
 30
0.0
  9
$UCSORGRIGHT
 10
0.0
 20
0.0
 30
0.0
  9
$UCSORGFRONT
 10
0.0
 20
0.0
 30
0.0
  9
$UCSORGBACK
 10
0.0
 20
0.0
 30
0.0
  9
$PUCSBASE
  2

  9
$PUCSNAME
  2

  9
$PUCSORG
 10
0.0
 20
0.0
 30
0.0
  9
$PUCSXDIR
 10
1.0
 20
0.0
 30
0.0
  9
$PUCSYDIR
 10
0.0
 20
1.0
 30
0.0
  9
$PUCSORTHOREF
  2

  9
$PUCSORTHOVIEW
 70
     0
  9
$PUCSORGTOP
 10
0.0
 20
0.0
 30
0.0
  9
$PUCSORGBOTTOM
 10
0.0
 20
0.0
 30
0.0
  9
$PUCSORGLEFT
 10
0.0
 20
0.0
 30
0.0
  9
$PUCSORGRIGHT
 10
0.0
 20
0.0
 30
0.0
  9
$PUCSORGFRONT
 10
0.0
 20
0.0
 30
0.0
  9
$PUCSORGBACK
 10
0.0
 20
0.0
 30
0.0
  9
$USERI1
 70
     0
  9
$USERI2
 70
     0
  9
$USERI3
 70
     0
  9
$USERI4
 70
     0
  9
$USERI5
 70
     0
  9
$USERR1
 40
0.0
  9
$USERR2
 40
0.0
  9
$USERR3
 40
0.0
  9
$USERR4
 40
0.0
  9
$USERR5
 40
0.0
  9
$WORLDVIEW
 70
     1
  9
$SHADEDGE
 70
     3
  9
$SHADEDIF
 70
    70
  9
$TILEMODE
 70
     1
  9
$MAXACTVP
 70
    16
  9
$PINSBASE
 10
0.0
 20
0.0
 30
0.0
  9
$PLIMCHECK
 70
     0
  9
$PEXTMIN
 10
1.000000E+20
 20
1.000000E+20
 30
1.000000E+20
  9
$PEXTMAX
 10
-1.000000E+20
 20
-1.000000E+20
 30
-1.000000E+20
  9
$PLIMMIN
 10
0.0
 20
0.0
  9
$PLIMMAX
 10
12.0
 20
9.0
  9
$UNITMODE
 70
     0
  9
$VISRETAIN
 70
     0
  9
$PLINEGEN
 70
     1
  9
$PSLTSCALE
 70
     1
  9
$TREEDEPTH
 70
  3020
  9
$CMLSTYLE
  2
STANDARD
  9
$CMLJUST
 70
     0
  9
$CMLSCALE
 40
1.0
  9
$PROXYGRAPHICS
 70
     0
  9
$MEASUREMENT
 70
     1
  9
$CELWEIGHT
370
    -1
  9
$ENDCAPS
280
     0
  9
$JOINSTYLE
280
     0
  9
$LWDISPLAY
290
     0
  9
$INSUNITS
 70
     6
  9
$HYPERLINKBASE
  1

  9
$STYLESHEET
  1

  9
$XEDIT
290
     1
  9
$CEPSNTYPE
380
     0
  9
$PSTYLEMODE
290
     1
  9
$FINGERPRINTGUID
  2

  9
$VERSIONGUID
  2

  9
$EXTNAMES
290
     1
  9
$PSVPSCALE
 40
0.0
  0
ENDSEC
  0
SECTION
  2
CLASSES
  0
CLASS
  1
LWPOLYLINE
  2
AcDbPolyline
  3
ObjectDBX Classes
 90
        0
 91
        0
280
     0
281
     1
  0
CLASS
  1
IMAGE
  2
AcDbRasterImage
  3
ISM
 90
        0
 91
        0
280
     0
281
     1
  0
CLASS
  1
OLE2FRAME
  2
AcDbOle2Frame
  3
ObjectDBX Classes
 90
        0
 91
        0
280
     0
281
     1
  0
CLASS
  1
HATCH
  2
AcDbHatch
  3
ObjectDBX Classes
 90
        0
 91
        0
280
     0
281
     1
  0
CLASS
  1
DICTIONARYVAR
  2
AcDbDictionaryVar
  3
ObjectDBX Classes
 90
        0
 91
        0
280
     0
281
     0
  0
CLASS
  1
RASTERVARIABLES
  2
AcDbRasterVariables
  3
ISM
 90
        0
 91
        0
280
     0
281
     0
  0
CLASS
  1
IMAGEDEF
  2
AcDbRasterImageDef
  3
ISM
 90
        0
 91
        0
280
     0
281
     0
  0
CLASS
  1
IMAGEDEF_REACTOR
  2
AcDbRasterImageDefReactor
  3
ISM
 90
        0
 91
        0
280
     0
281
     0
  0
CLASS
  1
IDBUFFER
  2
AcDbIdBuffer
  3
ObjectDBX Classes
 90
        0
 91
        0
280
     0
281
     0
  0
CLASS
  1
SPATIAL_FILTER
  2
AcDbSpatialFilter
  3
ObjectDBX Classes
 90
        0
 91
        0
280
     0
281
     0
  0
CLASS
  1
XRECORD
  2
AcDbXrecord
  3
ObjectDBX Classes
 90
        0
 91
        0
280
     0
281
     0
  0
CLASS
  1
SORTENTSTABLE
  2
AcDbSortentsTable
  3
ObjectDBX Classes
 90
        0
 91
        0
280
     0
281
     0
  0
CLASS
  1
LAYER_INDEX
  2
AcDbLayerIndex
  3
ObjectDBX Classes
 90
        0
 91
        0
280
     0
281
     0
  0
CLASS
  1
SPATIAL_INDEX
  2
AcDbSpatialIndex
  3
ObjectDBX Classes
 90
        0
 91
        0
280
     0
281
     0
  0
CLASS
  1
OBJECT_PTR
  2
CAseDLPNTableRecord
  3
ASE-LPNTableRecord
 90
        0
 91
        0
280
     0
281
     0
  0
CLASS
  1
LAYOUT
  2
AcDbLayout
  3
ObjectDBX Classes
 90
        0
 91
        0
280
     0
281
     0
  0
CLASS
  1
PLOTSETTINGS
  2
AcDbPlotSettings
  3
ObjectDBX Classes
 90
        0
 91
        0
280
     0
281
     0
  0
CLASS
  1
ACDBDICTIONARYWDFLT
  2
AcDbDictionaryWithDefault
  3
ObjectDBX Classes
 90
        0
 91
        0
280
     0
281
     0
  0
CLASS
  1
ACDBPLACEHOLDER
  2
AcDbPlaceHolder
  3
ObjectDBX Classes
 90
        0
 91
        0
280
     0
281
     0
  0
CLASS
  1
VBA_PROJECT
  2
AcDbVbaProject
  3
acadvba
 90
        0
 91
        0
280
     0
281
     0
  0
CLASS
  1
WIPEOUT
  2
AcDbWipeout
  3
WipeOut|AutoCAD Express Tool|expresstools@autodesk.com
 90
        0
 91
        0
280
     0
281
     1
  0
CLASS
  1
WIPEOUTVARIABLES
  2
AcDbWipeoutVariables
  3
WipeOut|AutoCAD Express Tool|expresstools@autodesk.com
 90
        0
 91
        0
280
     0
281
     0
  0
CLASS
  1
RTEXT
  2
RText
  3
RText|AutoCAD Express Tool|expresstools@autodesk.com
 90
        0
 91
        0
280
     0
281
     1
  0
CLASS
  1
ARCALIGNEDTEXT
  2
AcDbArcAlignedText
  3
ATEXT|AutoCAD Express Tool|expresstools@autodesk.com
 90
        0
 91
        0
280
     0
281
     1
  0
ENDSEC
  0
SECTION
  2
TABLES
  0
TABLE
  2
VPORT
  5
500
100
AcDbSymbolTable
 70
     1
  0
VPORT
  5
501
100
AcDbSymbolTableRecord
100
AcDbViewportTableRecord
  2
*ACTIVE
 70
     0
 10
0.0
 20
0.0
 11
1.0
 21
1.0
 12
310777.3507
 22
5261232.6845
 13
0.0
 23
0.0
 14
1.0
 24
1.0
 15
0.0
 25
0.0
 16
0.0
 26
0.0
 36
1.0
 17
0.0
 27
0.0
 37
0.0
 40
0.000003
 41
1.852941
 42
50.0
 43
0.0
 44
0.0
 50
0.0
 51
0.0
 71
     0
 72
   100
 73
     1
 74
     1
 75
     0
 76
     0
 77
     0
 78
     0
281
     0
 65
     0
110
0.0
120
0.0
130
0.0
111
1.0
121
0.0
131
0.0
112
0.0
122
1.0
132
0.0
345
0
346
0
 79
     0
146
0.0
  0
ENDTAB
  0
TABLE
  2
LTYPE
  5
502
100
AcDbSymbolTable
 70
     3
  0
LTYPE
  5
503
100
AcDbSymbolTableRecord
100
AcDbLinetypeTableRecord
  2
ByBlock
 70
     0
  3

 72
    65
 73
     0
 40
0.0
  0
LTYPE
  5
504
100
AcDbSymbolTableRecord
100
AcDbLinetypeTableRecord
  2
ByLayer
 70
     0
  3

 72
    65
 73
     0
 40
0.0
  0
LTYPE
  5
505
100
AcDbSymbolTableRecord
100
AcDbLinetypeTableRecord
  2
CONTINUOUS
 70
     0
  3
Solid line
 72
    65
 73
     0
 40
0.0
  0
LTYPE
  5
506
100
AcDbSymbolTableRecord
100
AcDbLinetypeTableRecord
  2
DASHED
 70
     0
  3
Dashed line
 72
    65
 73
     2
 40
10.0
 49
5.0
 74
     0
 49
-5.0
 74
     0
  0
LTYPE
  5
507
100
AcDbSymbolTableRecord
100
AcDbLinetypeTableRecord
  2
Solid
 70
     0
  3
Solid
 72
    65
 73
     0
 40
0.0
  0
ENDTAB
  0
TABLE
  2
LAYER
  5
508
100
AcDbSymbolTable
 70
     1
  0
LAYER
  5
509
100
AcDbSymbolTableRecord
100
AcDbLayerTableRecord
  2
0
 70
     0
 62
     7
  6
CONTINUOUS
290
     1
370
     0
390
25E
  0
LAYER
  5
510
100
AcDbSymbolTableRecord
100
AcDbLayerTableRecord
  2
Points
 70
     0
 62
     7
  6
CONTINUOUS
290
     1
370
     0
390
25E
  0
LAYER
  5
511
100
AcDbSymbolTableRecord
100
AcDbLayerTableRecord
  2
Lines
 70
     0
 62
     7
  6
CONTINUOUS
290
     1
370
     0
390
25E
  0
LAYER
  5
512
100
AcDbSymbolTableRecord
100
AcDbLayerTableRecord
  2
Landscape
 70
     0
 62
     7
  6
Solid
290
     1
370
     0
390
25E
  0
LAYER
  5
513
100
AcDbSymbolTableRecord
100
AcDbLayerTableRecord
  2
Structures
 70
     0
 62
     7
  6
Solid
290
     1
370
     0
390
25E
  0
LAYER
  5
514
100
AcDbSymbolTableRecord
100
AcDbLayerTableRecord
  2
CURB - BACK
 70
     0
 62
   215
  6
Solid
290
     1
370
     0
390
25E
  0
LAYER
  5
515
100
AcDbSymbolTableRecord
100
AcDbLayerTableRecord
  2
BLDG - EXT
 70
     0
 62
    27
  6
Solid
290
     1
370
     0
390
25E
  0
LAYER
  5
516
100
AcDbSymbolTableRecord
100
AcDbLayerTableRecord
  2
CURB - BOTTOM
 70
     0
 62
   215
  6
Solid
290
     1
370
     0
390
25E
  0
LAYER
  5
517
100
AcDbSymbolTableRecord
100
AcDbLayerTableRecord
  2
SLOPE - BOTTOM
 70
     0
 62
     5
  6
Solid
290
     1
370
     0
390
25E
  0
LAYER
  5
518
100
AcDbSymbolTableRecord
100
AcDbLayerTableRecord
  2
CATCH BASIN
 70
     0
 62
   131
  6
Solid
290
     1
370
     0
390
25E
  0
LAYER
  5
519
100
AcDbSymbolTableRecord
100
AcDbLayerTableRecord
  2
EVID - NEW
 70
     0
 62
     1
  6
Solid
290
     1
370
     0
390
25E
  0
LAYER
  5
520
100
AcDbSymbolTableRecord
100
AcDbLayerTableRecord
  2
CONC
 70
     0
 62
    19
  6
Solid
290
     1
370
     0
390
25E
  0
LAYER
  5
521
100
AcDbSymbolTableRecord
100
AcDbLayerTableRecord
  2
Rainwater
 70
     0
 62
     4
  6
Solid
290
     1
370
     0
390
25E
  0
LAYER
  5
522
100
AcDbSymbolTableRecord
100
AcDbLayerTableRecord
  2
BLDG - DECK
 70
     0
 62
    19
  6
Solid
290
     1
370
     0
390
25E
  0
LAYER
  5
523
100
AcDbSymbolTableRecord
100
AcDbLayerTableRecord
  2
DWAY
 70
     0
 62
   215
  6
Solid
290
     1
370
     0
390
25E
  0
LAYER
  5
524
100
AcDbSymbolTableRecord
100
AcDbLayerTableRecord
  2
ELEC - STRUCTURE
 70
     0
 62
    15
  6
Solid
290
     1
370
     0
390
25E
  0
LAYER
  5
525
100
AcDbSymbolTableRecord
100
AcDbLayerTableRecord
  2
ROAD-EXT-ASPH-EDGE
 70
     0
 62
   215
  6
Solid
290
     1
370
     0
390
25E
  0
LAYER
  5
526
100
AcDbSymbolTableRecord
100
AcDbLayerTableRecord
  2
FENCE
 70
     0
 62
    19
  6
Solid
290
     1
370
     0
390
25E
  0
LAYER
  5
527
100
AcDbSymbolTableRecord
100
AcDbLayerTableRecord
  2
UtilityWater
 70
     0
 62
     7
  6
Solid
290
     1
370
     0
390
25E
  0
LAYER
  5
528
100
AcDbSymbolTableRecord
100
AcDbLayerTableRecord
  2
EVID - EXT
 70
     0
 62
   212
  6
Solid
290
     1
370
     0
390
25E
  0
LAYER
  5
529
100
AcDbSymbolTableRecord
100
AcDbLayerTableRecord
  2
ROAD-EXT-GRAV-EDGE
 70
     0
 62
   215
  6
Solid
290
     1
370
     0
390
25E
  0
LAYER
  5
530
100
AcDbSymbolTableRecord
100
AcDbLayerTableRecord
  2
GUTTER
 70
     0
 62
   215
  6
Solid
290
     1
370
     0
390
25E
  0
LAYER
  5
531
100
AcDbSymbolTableRecord
100
AcDbLayerTableRecord
  2
UtilityElec
 70
     0
 62
     7
  6
Solid
290
     1
370
     0
390
25E
  0
LAYER
  5
532
100
AcDbSymbolTableRecord
100
AcDbLayerTableRecord
  2
MANHOLE
 70
     0
 62
    55
  6
Solid
290
     1
370
     0
390
25E
  0
LAYER
  5
533
100
AcDbSymbolTableRecord
100
AcDbLayerTableRecord
  2
SurveyControl
 70
     0
 62
     7
  6
Solid
290
     1
370
     0
390
25E
  0
LAYER
  5
534
100
AcDbSymbolTableRecord
100
AcDbLayerTableRecord
  2
ELEC - LINE
 70
     0
 62
    15
  6
Solid
290
     1
370
     0
390
25E
  0
LAYER
  5
535
100
AcDbSymbolTableRecord
100
AcDbLayerTableRecord
  2
EXT-OHWM
 70
     0
 62
   124
  6
Solid
290
     1
370
     0
390
25E
  0
LAYER
  5
536
100
AcDbSymbolTableRecord
100
AcDbLayerTableRecord
  2
RAIL
 70
     0
 62
    19
  6
Solid
290
     1
370
     0
390
25E
  0
LAYER
  5
537
100
AcDbSymbolTableRecord
100
AcDbLayerTableRecord
  2
EXT-WALL
 70
     0
 62
    28
  6
Solid
290
     1
370
     0
390
25E
  0
LAYER
  5
538
100
AcDbSymbolTableRecord
100
AcDbLayerTableRecord
  2
ROWStructures
 70
     0
 62
     7
  6
Solid
290
     1
370
     0
390
25E
  0
LAYER
  5
539
100
AcDbSymbolTableRecord
100
AcDbLayerTableRecord
  2
BLDG - STEPS
 70
     0
 62
    19
  6
Solid
290
     1
370
     0
390
25E
  0
LAYER
  5
540
100
AcDbSymbolTableRecord
100
AcDbLayerTableRecord
  2
UtilityStorm
 70
     0
 62
     7
  6
Solid
290
     1
370
     0
390
25E
  0
LAYER
  5
541
100
AcDbSymbolTableRecord
100
AcDbLayerTableRecord
  2
SIDEWALK
 70
     0
 62
   215
  6
Solid
290
     1
370
     0
390
25E
  0
LAYER
  5
542
100
AcDbSymbolTableRecord
100
AcDbLayerTableRecord
  2
CURB - TOP
 70
     0
 62
   215
  6
Solid
290
     1
370
     0
390
25E
  0
LAYER
  5
543
100
AcDbSymbolTableRecord
100
AcDbLayerTableRecord
  2
SLOPE - TOP
 70
     0
 62
    40
  6
Solid
290
     1
370
     0
390
25E
  0
LAYER
  5
544
100
AcDbSymbolTableRecord
100
AcDbLayerTableRecord
  2
Utility
 70
     0
 62
     7
  6
Solid
290
     1
370
     0
390
25E
  0
ENDTAB
  0
TABLE
  2
STYLE
  5
545
100
AcDbSymbolTable
 70
     2
  0
STYLE
  5
546
100
AcDbSymbolTableRecord
100
AcDbTextStyleTableRecord
  2
STANDARD
 70
     0
 40
0.0
 41
1.0
 50
0.0
 71
     0
 42
0.2
  3
txt
  4

  0
STYLE
  5
547
100
AcDbSymbolTableRecord
100
AcDbTextStyleTableRecord
  2
MONOTEXT
 70
     0
 40
0.0
 41
1.0
 50
0.0
 71
     0
 42
0.2
  3
txt
  4

  0
ENDTAB
  0
TABLE
  2
VIEW
  5
548
100
AcDbSymbolTable
 70
     0
  0
ENDTAB
  0
TABLE
  2
UCS
  5
549
100
AcDbSymbolTable
 70
     0
  0
ENDTAB
  0
TABLE
  2
APPID
  5
550
100
AcDbSymbolTable
 70
     1
  0
APPID
  5
551
100
AcDbSymbolTableRecord
100
AcDbRegAppTableRecord
  2
ACAD
 70
     0
  0
ENDTAB
  0
TABLE
  2
DIMSTYLE
  5
552
100
AcDbSymbolTable
 70
     1
100
AcDbDimStyleTable
 71
     0
  0
DIMSTYLE
105
256
100
AcDbSymbolTableRecord
100
AcDbDimStyleTableRecord
  2
STANDARD
 70
     0
  3

  4

 40
1.0
 41
0.18
 42
0.0625
 43
0.38
 44
0.18
 45
0.0
 46
0.0
 47
0.0
 48
0.0
 71
     0
 72
     0
 73
     1
 74
     1
 75
     0
 76
     0
 77
     0
 78
     0
 79
     0
140
0.18
141
0.09
142
0.0
143
25.4
144
1.0
145
0.0
146
1.0
147
0.09
148
0.0
170
     0
171
     2
172
     0
173
     0
174
     0
175
     0
176
     0
177
     0
178
     0
179
     0
271
     4
272
     4
273
     2
274
     2
275
     0
276
     0
277
     2
278
    46
279
     0
280
     0
281
     0
282
     0
283
     1
284
     0
285
     0
286
     0
288
     0
341
0
342
0
343
0
344
0
371
    -2
372
    -2
  0
ENDTAB
  0
TABLE
  2
BLOCK_RECORD
  5
553
100
AcDbSymbolTable
 70
    10
  0
BLOCK_RECORD
  5
554
100
AcDbSymbolTableRecord
100
AcDbBlockTableRecord
  2
*MODEL_SPACE
  0
BLOCK_RECORD
  5
555
100
AcDbSymbolTableRecord
100
AcDbBlockTableRecord
  2
*PAPER_SPACE
  0
BLOCK_RECORD
  5
556
100
AcDbSymbolTableRecord
100
AcDbBlockTableRecord
  2
DOT
  0
BLOCK_RECORD
  5
557
100
AcDbSymbolTableRecord
100
AcDbBlockTableRecord
  2
CROSS
  0
BLOCK_RECORD
  5
558
100
AcDbSymbolTableRecord
100
AcDbBlockTableRecord
  2
DIAG_CROSS
  0
BLOCK_RECORD
  5
559
100
AcDbSymbolTableRecord
100
AcDbBlockTableRecord
  2
CIRCLE
  0
BLOCK_RECORD
  5
560
100
AcDbSymbolTableRecord
100
AcDbBlockTableRecord
  2
DOUBLE_CIRCLE
  0
BLOCK_RECORD
  5
561
100
AcDbSymbolTableRecord
100
AcDbBlockTableRecord
  2
TRIANGLE
  0
BLOCK_RECORD
  5
562
100
AcDbSymbolTableRecord
100
AcDbBlockTableRecord
  2
DOUBLE_TRIANGLE
  0
BLOCK_RECORD
  5
563
100
AcDbSymbolTableRecord
100
AcDbBlockTableRecord
  2
STAKED_FLAG
  0
BLOCK_RECORD
  5
564
100
AcDbSymbolTableRecord
100
AcDbBlockTableRecord
  2
BOX
  0
BLOCK_RECORD
  5
565
100
AcDbSymbolTableRecord
100
AcDbBlockTableRecord
  2
TEXT
  0
ENDTAB
  0
ENDSEC
  0
SECTION
  2
BLOCKS
  0
BLOCK
  5
566
100
AcDbEntity
  8
0
100
AcDbBlockBegin
  2
*MODEL_SPACE
 70
     0
 10
0.0
 20
0.0
 30
0.0
  3
*MODEL_SPACE
  1

  0
ENDBLK
  5
567
100
AcDbEntity
  8
0
100
AcDbBlockEnd
  0
BLOCK
  5
568
100
AcDbEntity
 67
     1
  8
0
100
AcDbBlockBegin
  2
*PAPER_SPACE
 70
     0
 10
0.0
 20
0.0
 30
0.0
  3
*PAPER_SPACE
  1

  0
ENDBLK
  5
569
100
AcDbEntity
 67
     1
  8
0
100
AcDbBlockEnd
  0
BLOCK
  5
570
100
AcDbEntity
  8
0
 62
     0
370
0.000000
100
AcDbBlockBegin
  2
DOT
 70
     2
 10
1.000000
 20
1.000000
 30
0.000000
  3
DOT
  1

  0
POINT
  5
571
100
AcDbEntity
  8
0
 62
     0
100
AcDbPoint
 10
1.000000
 20
1.000000
 30
0.000000
  0
ENDBLK
  5
572
100
AcDbEntity
  8
0
100
AcDbBlockEnd
  0
BLOCK
  5
573
100
AcDbEntity
  8
0
 62
     0
370
0.000000
100
AcDbBlockBegin
  2
CROSS
 70
     2
 10
1.000000
 20
1.000000
 30
0.000000
  3
CROSS
  1

  0
LINE
  5
574
100
AcDbEntity
  8
0
 62
     0
370
0.000000
100
AcDbLine
 10
0.000000
 20
1.000000
 11
2.000000
 21
1.000000
  0
LINE
  5
575
100
AcDbEntity
  8
0
 62
     0
370
0.000000
100
AcDbLine
 10
1.000000
 20
2.000000
 11
1.000000
 21
0.000000
  0
ENDBLK
  5
576
100
AcDbEntity
  8
0
100
AcDbBlockEnd
  0
BLOCK
  5
577
100
AcDbEntity
  8
0
 62
     0
370
0.000000
100
AcDbBlockBegin
  2
DIAG_CROSS
 70
     2
 10
1.000000
 20
1.000000
 30
0.000000
  3
DIAG_CROSS
  1

  0
LINE
  5
578
100
AcDbEntity
  8
0
 62
     0
370
0.000000
100
AcDbLine
 10
0.000000
 20
2.000000
 11
2.000000
 21
0.000000
  0
LINE
  5
579
100
AcDbEntity
  8
0
 62
     0
370
0.000000
100
AcDbLine
 10
0.000000
 20
0.000000
 11
2.000000
 21
2.000000
  0
ENDBLK
  5
580
100
AcDbEntity
  8
0
100
AcDbBlockEnd
  0
BLOCK
  5
581
100
AcDbEntity
  8
0
 62
     0
370
0.000000
100
AcDbBlockBegin
  2
CIRCLE
 70
     2
 10
1.000000
 20
1.000000
 30
0.000000
  3
CIRCLE
  1

  0
ARC
  5
582
100
AcDbEntity
  8
0
 62
     0
370
0.000000
100
AcDbCircle
 10
1.000000
 20
1.000000
 40
1.000000
100
AcDbArc
 50
270.000000
 51
90.000000
  0
ARC
  5
583
100
AcDbEntity
  8
0
 62
     0
370
0.000000
100
AcDbCircle
 10
1.000000
 20
1.000000
 40
1.000000
100
AcDbArc
 50
90.000000
 51
270.000000
  0
ENDBLK
  5
584
100
AcDbEntity
  8
0
100
AcDbBlockEnd
  0
BLOCK
  5
585
100
AcDbEntity
  8
0
 62
     0
370
0.000000
100
AcDbBlockBegin
  2
DOUBLE_CIRCLE
 70
     2
 10
1.000000
 20
1.000000
 30
0.000000
  3
DOUBLE_CIRCLE
  1

  0
ARC
  5
586
100
AcDbEntity
  8
0
 62
     0
370
0.000000
100
AcDbCircle
 10
1.000000
 20
1.000000
 40
1.000000
100
AcDbArc
 50
270.000000
 51
90.000000
  0
ARC
  5
587
100
AcDbEntity
  8
0
 62
     0
370
0.000000
100
AcDbCircle
 10
1.000000
 20
1.000000
 40
1.000000
100
AcDbArc
 50
90.000000
 51
270.000000
  0
ARC
  5
588
100
AcDbEntity
  8
0
 62
     0
370
0.000000
100
AcDbCircle
 10
1.000000
 20
1.000000
 40
0.700000
100
AcDbArc
 50
270.000000
 51
90.000000
  0
ARC
  5
589
100
AcDbEntity
  8
0
 62
     0
370
0.000000
100
AcDbCircle
 10
1.000000
 20
1.000000
 40
0.700000
100
AcDbArc
 50
90.000000
 51
270.000000
  0
ENDBLK
  5
590
100
AcDbEntity
  8
0
100
AcDbBlockEnd
  0
BLOCK
  5
591
100
AcDbEntity
  8
0
 62
     0
370
0.000000
100
AcDbBlockBegin
  2
TRIANGLE
 70
     2
 10
1.000000
 20
0.800000
 30
0.000000
  3
TRIANGLE
  1

  0
LINE
  5
592
100
AcDbEntity
  8
0
 62
     0
370
0.000000
100
AcDbLine
 10
0.000000
 20
0.200000
 11
2.000000
 21
0.200000
  0
LINE
  5
593
100
AcDbEntity
  8
0
 62
     0
370
0.000000
100
AcDbLine
 10
0.000000
 20
0.200000
 11
1.000000
 21
1.900000
  0
LINE
  5
594
100
AcDbEntity
  8
0
 62
     0
370
0.000000
100
AcDbLine
 10
1.000000
 20
1.900000
 11
2.000000
 21
0.200000
  0
ENDBLK
  5
595
100
AcDbEntity
  8
0
100
AcDbBlockEnd
  0
BLOCK
  5
596
100
AcDbEntity
  8
0
 62
     0
370
0.000000
100
AcDbBlockBegin
  2
DOUBLE_TRIANGLE
 70
     2
 10
1.000000
 20
0.800000
 30
0.000000
  3
DOUBLE_TRIANGLE
  1

  0
LINE
  5
597
100
AcDbEntity
  8
0
 62
     0
370
0.000000
100
AcDbLine
 10
1.000000
 20
1.900000
 11
0.000000
 21
0.200000
  0
LINE
  5
598
100
AcDbEntity
  8
0
 62
     0
370
0.000000
100
AcDbLine
 10
2.000000
 20
0.200000
 11
1.000000
 21
1.900000
  0
LINE
  5
599
100
AcDbEntity
  8
0
 62
     0
370
0.000000
100
AcDbLine
 10
0.000000
 20
0.200000
 11
2.000000
 21
0.200000
  0
LINE
  5
600
100
AcDbEntity
  8
0
 62
     0
370
0.000000
100
AcDbLine
 10
0.520000
 20
0.500000
 11
1.480000
 21
0.500000
  0
LINE
  5
601
100
AcDbEntity
  8
0
 62
     0
370
0.000000
100
AcDbLine
 10
0.520000
 20
0.500000
 11
1.000000
 21
1.340000
  0
LINE
  5
602
100
AcDbEntity
  8
0
 62
     0
370
0.000000
100
AcDbLine
 10
1.000000
 20
1.340000
 11
1.480000
 21
0.500000
  0
ENDBLK
  5
603
100
AcDbEntity
  8
0
100
AcDbBlockEnd
  0
BLOCK
  5
604
100
AcDbEntity
  8
0
 62
     0
370
0.000000
100
AcDbBlockBegin
  2
STAKED_FLAG
 70
     2
 10
1.000000
 20
1.000000
 30
0.000000
  3
STAKED_FLAG
  1

  0
LINE
  5
605
100
AcDbEntity
  8
0
 62
     0
370
0.000000
100
AcDbLine
 10
1.000000
 20
0.200000
 11
1.000000
 21
1.800000
  0
LINE
  5
606
100
AcDbEntity
  8
0
 62
     0
370
0.000000
100
AcDbLine
 10
1.000000
 20
1.800000
 11
1.500000
 21
1.400000
  0
LINE
  5
607
100
AcDbEntity
  8
0
 62
     0
370
0.000000
100
AcDbLine
 10
1.500000
 20
1.400000
 11
1.000000
 21
1.000000
  0
ENDBLK
  5
608
100
AcDbEntity
  8
0
100
AcDbBlockEnd
  0
BLOCK
  5
609
100
AcDbEntity
  8
0
 62
     0
370
0.000000
100
AcDbBlockBegin
  2
BOX
 70
     2
 10
1.000000
 20
1.000000
 30
0.000000
  3
BOX
  1

  0
LINE
  5
610
100
AcDbEntity
  8
0
 62
     0
370
0.000000
100
AcDbLine
 10
0.000000
 20
0.000000
 11
2.000000
 21
0.000000
  0
LINE
  5
611
100
AcDbEntity
  8
0
 62
     0
370
0.000000
100
AcDbLine
 10
2.000000
 20
0.000000
 11
2.000000
 21
2.000000
  0
LINE
  5
612
100
AcDbEntity
  8
0
 62
     0
370
0.000000
100
AcDbLine
 10
2.000000
 20
2.000000
 11
0.000000
 21
2.000000
  0
LINE
  5
613
100
AcDbEntity
  8
0
 62
     0
370
0.000000
100
AcDbLine
 10
0.000000
 20
2.000000
 11
0.000000
 21
0.000000
  0
ENDBLK
  5
614
100
AcDbEntity
  8
0
100
AcDbBlockEnd
  0
BLOCK
  5
615
100
AcDbEntity
  8
0
 62
     0
370
0.000000
100
AcDbBlockBegin
  2
TEXT
 70
     2
 10
1.000000
 20
1.000000
 30
0.000000
  3
TEXT
  1

  0
TEXT
  5
616
100
AcDbEntity
  8
0
  6
ByLayer
 62
     0
370
-1.000000
100
AcDbText
 10
1.000000
 20
1.000000
 30
0.000000
 40
40.000000
  1
TEXT
 50
0.000000
 41
1.000000
 51
0.000000
  7
STANDARD
 71
0.000000
210
0.000000
220
0.000000
230
1.000000
100
AcDbText
  0
ENDBLK
  5
617
100
AcDbEntity
  8
0
100
AcDbBlockEnd
  0
ENDSEC
  0
SECTION
  2
ENTITIES
  0
LINE
  5
618
100
AcDbEntity
  8
ROAD-EXT-ASPH-EDGE
100
AcDbLine
  6
Solid
 10
319587.784161
 20
5261878.386563
 30
143.079190
 11
319582.692204
 21
5261883.374406
 31
143.142325
  0
LINE
  5
619
100
AcDbEntity
  8
BLDG - STEPS
100
AcDbLine
  6
Solid
 10
319595.392358
 20
5261882.039111
 30
143.764845
 11
319596.219695
 21
5261881.119832
 31
143.757365
  0
LINE
  5
620
100
AcDbEntity
  8
BLDG - DECK
100
AcDbLine
  6
Solid
 10
319597.510043
 20
5261880.778892
 30
143.719619
 11
319595.205819
 21
5261883.398443
 31
143.732761
  0
LINE
  5
621
100
AcDbEntity
  8
FENCE
100
AcDbLine
  6
Solid
 10
319605.193664
 20
5261882.231956
 30
143.149474
 11
319602.952727
 21
5261885.529336
 31
143.339331
  0
LINE
  5
622
100
AcDbEntity
  8
BLDG - EXT
100
AcDbLine
  6
Solid
 10
319598.391072
 20
5261881.575015
 30
144.889585
 11
319604.516652
 21
5261887.045008
 31
142.896833
  0
LINE
  5
623
100
AcDbEntity
  8
BLDG - STEPS
100
AcDbLine
  6
Solid
 10
319605.949691
 20
5261891.672741
 30
142.893382
 11
319605.213117
 21
5261892.637986
 31
142.969624
  0
LINE
  5
624
100
AcDbEntity
  8
BLDG - DECK
100
AcDbLine
  6
Solid
 10
319606.374919
 20
5261889.525242
 30
142.921653
 11
319604.258645
 21
5261891.834873
 31
142.874895
  0
LINE
  5
625
100
AcDbEntity
  8
BLDG - STEPS
100
AcDbLine
  6
Solid
 10
319612.251824
 20
5261889.728785
 30
142.888753
 11
319612.855432
 21
5261888.665958
 31
142.806831
  0
LINE
  5
626
100
AcDbEntity
  8
BLDG - EXT
100
AcDbLine
  6
Solid
 10
319614.308907
 20
5261888.512981
 30
142.823841
 11
319612.841923
 21
5261891.060914
 31
142.858706
  0
LINE
  5
627
100
AcDbEntity
  8
BLDG - EXT
100
AcDbLine
  6
Solid
 10
319612.744257
 20
5261890.786018
 30
142.878630
 11
319616.413784
 21
5261892.904291
 31
142.626016
  0
LINE
  5
628
100
AcDbEntity
  8
Structures
100
AcDbLine
 62
     0
  6
Solid
 10
319612.781827
 20
5261890.946531
 30
143.032993
 11
319616.241760
 21
5261892.998496
 31
142.864816
  0
LINE
  5
629
100
AcDbEntity
  8
Structures
100
AcDbLine
 62
     0
  6
Solid
 10
319614.175443
 20
5261888.483151
 30
143.002659
 11
319617.651237
 21
5261890.521315
 31
142.910921
  0
LINE
  5
630
100
AcDbEntity
  8
BLDG - EXT
100
AcDbLine
  6
Solid
 10
319614.023740
 20
5261888.570104
 30
142.786018
 11
319617.722381
 21
5261890.718290
 31
142.650785
  0
LINE
  5
631
100
AcDbEntity
  8
BLDG - EXT
100
AcDbLine
  6
Solid
 10
319616.022230
 20
5261893.022616
 30
142.650946
 11
319617.554631
 21
5261890.343102
 31
142.666572
  0
LINE
  5
632
100
AcDbEntity
  8
FENCE
100
AcDbLine
  6
Solid
 10
319605.037364
 20
5261882.219276
 30
143.148664
 11
319620.143842
 21
5261891.349679
 31
141.909322
  0
LINE
  5
633
100
AcDbEntity
  8
FENCE
100
AcDbLine
  6
Solid
 10
319600.653639
 20
5261891.654734
 30
143.557996
 11
319613.179046
 21
5261902.473727
 31
142.102570
  0
LINE
  5
634
100
AcDbEntity
  8
FENCE
100
AcDbLine
  6
Solid
 10
319620.066658
 20
5261891.070497
 30
141.972965
 11
319612.933357
 21
5261902.491017
 31
142.119661
  0
LINE
  5
635
100
AcDbEntity
  8
ELEC - LINE
100
AcDbLine
  6
Solid
 10
319631.579638
 20
5261875.889099
 30
141.175858
 11
319609.443213
 21
5261913.519426
 31
141.652667
  0
LINE
  5
636
100
AcDbEntity
  8
UtilityElec
100
AcDbLine
 62
     0
  6
Solid
 10
319600.649064
 20
5261891.506062
 30
143.881848
 11
319609.443213
 21
5261913.519426
 31
141.652667
  0
LINE
  5
637
100
AcDbEntity
  8
UtilityElec
100
AcDbLine
 62
     0
  6
Solid
 10
319600.320501
 20
5261891.863163
 30
144.057831
 11
319609.443213
 21
5261913.519426
 31
141.652667
  0
LINE
  5
638
100
AcDbEntity
  8
BLDG - EXT
100
AcDbLine
  6
Solid
 10
319600.390948
 20
5261891.635677
 30
143.975953
 11
319594.304985
 21
5261886.202183
 31
144.722289
  0
LINE
  5
639
100
AcDbEntity
  8
BLDG - EXT
100
AcDbLine
  6
Solid
 10
319598.554403
 20
5261881.554948
 30
143.657862
 11
319590.199884
 21
5261890.925708
 31
144.829753
  0
LINE
  5
640
100
AcDbEntity
  8
Structures
100
AcDbLine
 62
     0
  6
Solid
 10
319589.899358
 20
5261890.753456
 30
144.787143
 11
319598.253876
 21
5261881.382696
 31
143.615251
  0
LINE
  5
641
100
AcDbEntity
  8
BLDG - EXT
100
AcDbLine
  6
Solid
 10
319604.481559
 20
5261886.923583
 30
142.926254
 11
319596.191831
 21
5261896.262645
 31
143.954540
  0
LINE
  5
642
100
AcDbEntity
  8
BLDG - EXT
100
AcDbLine
  6
Solid
 10
319590.199280
 20
5261890.725016
 30
144.899354
 11
319596.327697
 21
5261896.208379
 31
144.138470
  0
LINE
  5
643
100
AcDbEntity
  8
Structures
100
AcDbLine
 62
     0
  6
Solid
 10
319604.728327
 20
5261887.142625
 30
142.926254
 11
319596.438599
 21
5261896.481686
 31
143.954540
  0
LINE
  5
644
100
AcDbEntity
  8
Structures
100
AcDbLine
 62
     0
  6
Solid
 10
319596.535811
 20
5261896.567975
 30
143.954540
 11
319604.825539
 21
5261887.228914
 31
142.926254
  0
POLYLINE
  5
645
100
AcDbEntity
  8
ROAD-EXT-ASPH-EDGE
  6
Solid
 48
5.000000
100
AcDb3dPolyline
 66
     1
 10
0.0
 20
0.0
 30
0.0
 70
     8
 75
     0
  0
VERTEX
  5
646
330
645
100
AcDbEntity
  8
Lines
100
AcDbVertex
100
AcDb3dPolylineVertex
 10
319587.784161
 20
5261878.386563
 30
143.079190
 70
    32
  0
VERTEX
  5
647
330
645
100
AcDbEntity
  8
Lines
100
AcDbVertex
100
AcDb3dPolylineVertex
 10
319592.996365
 20
5261873.328315
 30
142.949297
 70
    32
  0
VERTEX
  5
648
330
645
100
AcDbEntity
  8
Lines
100
AcDbVertex
100
AcDb3dPolylineVertex
 10
319598.565979
 20
5261867.987307
 30
142.854646
 70
    32
  0
SEQEND
  5
649
330
645
100
AcDbEntity
  0
POLYLINE
  5
650
100
AcDbEntity
  8
DWAY
  6
Solid
 48
5.000000
100
AcDb3dPolyline
 66
     1
 10
0.0
 20
0.0
 30
0.0
 70
     8
 75
     0
  0
VERTEX
  5
651
330
650
100
AcDbEntity
  8
Lines
100
AcDbVertex
100
AcDb3dPolylineVertex
 10
319591.059178
 20
5261877.484890
 30
143.189388
 70
    32
  0
VERTEX
  5
652
330
650
100
AcDbEntity
  8
Lines
100
AcDbVertex
100
AcDb3dPolylineVertex
 10
319594.958644
 20
5261880.000711
 30
143.601348
 70
    32
  0
VERTEX
  5
653
330
650
100
AcDbEntity
  8
Lines
100
AcDbVertex
100
AcDb3dPolylineVertex
 10
319595.045310
 20
5261880.056777
 30
143.608195
 70
    32
  0
VERTEX
  5
654
330
650
100
AcDbEntity
  8
Lines
100
AcDbVertex
100
AcDb3dPolylineVertex
 10
319595.122238
 20
5261880.125608
 30
143.615042
 70
    32
  0
VERTEX
  5
655
330
650
100
AcDbEntity
  8
Lines
100
AcDbVertex
100
AcDb3dPolylineVertex
 10
319595.187624
 20
5261880.205486
 30
143.621889
 70
    32
  0
VERTEX
  5
656
330
650
100
AcDbEntity
  8
Lines
100
AcDbVertex
100
AcDb3dPolylineVertex
 10
319595.239901
 20
5261880.294496
 30
143.628737
 70
    32
  0
VERTEX
  5
657
330
650
100
AcDbEntity
  8
Lines
100
AcDbVertex
100
AcDb3dPolylineVertex
 10
319595.277818
 20
5261880.390506
 30
143.635584
 70
    32
  0
VERTEX
  5
658
330
650
100
AcDbEntity
  8
Lines
100
AcDbVertex
100
AcDb3dPolylineVertex
 10
319595.300467
 20
5261880.491217
 30
143.642431
 70
    32
  0
VERTEX
  5
659
330
650
100
AcDbEntity
  8
Lines
100
AcDbVertex
100
AcDb3dPolylineVertex
 10
319595.307303
 20
5261880.594217
 30
143.649278
 70
    32
  0
VERTEX
  5
660
330
650
100
AcDbEntity
  8
Lines
100
AcDbVertex
100
AcDb3dPolylineVertex
 10
319595.298165
 20
5261880.697038
 30
143.656125
 70
    32
  0
VERTEX
  5
661
330
650
100
AcDbEntity
  8
Lines
100
AcDbVertex
100
AcDb3dPolylineVertex
 10
319595.273271
 20
5261880.797218
 30
143.662972
 70
    32
  0
VERTEX
  5
662
330
650
100
AcDbEntity
  8
Lines
100
AcDbVertex
100
AcDb3dPolylineVertex
 10
319595.233217
 20
5261880.892357
 30
143.669819
 70
    32
  0
VERTEX
  5
663
330
650
100
AcDbEntity
  8
Lines
100
AcDbVertex
100
AcDb3dPolylineVertex
 10
319595.217214
 20
5261880.921585
 30
143.672028
 70
    32
  0
VERTEX
  5
664
330
650
100
AcDbEntity
  8
Lines
100
AcDbVertex
100
AcDb3dPolylineVertex
 10
319595.158261
 20
5261881.034715
 30
143.675906
 70
    32
  0
VERTEX
  5
665
330
650
100
AcDbEntity
  8
Lines
100
AcDbVertex
100
AcDb3dPolylineVertex
 10
319595.114104
 20
5261881.154411
 30
143.679785
 70
    32
  0
VERTEX
  5
666
330
650
100
AcDbEntity
  8
Lines
100
AcDbVertex
100
AcDb3dPolylineVertex
 10
319595.085261
 20
5261881.278689
 30
143.683663
 70
    32
  0
VERTEX
  5
667
330
650
100
AcDbEntity
  8
Lines
100
AcDbVertex
100
AcDb3dPolylineVertex
 10
319595.072184
 20
5261881.405598
 30
143.687541
 70
    32
  0
VERTEX
  5
668
330
650
100
AcDbEntity
  8
Lines
100
AcDbVertex
100
AcDb3dPolylineVertex
 10
319595.075078
 20
5261881.533147
 30
143.691420
 70
    32
  0
VERTEX
  5
669
330
650
100
AcDbEntity
  8
Lines
100
AcDbVertex
100
AcDb3dPolylineVertex
 10
319595.093899
 20
5261881.659332
 30
143.695298
 70
    32
  0
VERTEX
  5
670
330
650
100
AcDbEntity
  8
Lines
100
AcDbVertex
100
AcDb3dPolylineVertex
 10
319595.128350
 20
5261881.782174
 30
143.699177
 70
    32
  0
VERTEX
  5
671
330
650
100
AcDbEntity
  8
Lines
100
AcDbVertex
100
AcDb3dPolylineVertex
 10
319595.177891
 20
5261881.899743
 30
143.703055
 70
    32
  0
VERTEX
  5
672
330
650
100
AcDbEntity
  8
Lines
100
AcDbVertex
100
AcDb3dPolylineVertex
 10
319595.241744
 20
5261882.010196
 30
143.706933
 70
    32
  0
VERTEX
  5
673
330
650
100
AcDbEntity
  8
Lines
100
AcDbVertex
100
AcDb3dPolylineVertex
 10
319595.318907
 20
5261882.111797
 30
143.710812
 70
    32
  0
VERTEX
  5
674
330
650
100
AcDbEntity
  8
Lines
100
AcDbVertex
100
AcDb3dPolylineVertex
 10
319595.408169
 20
5261882.202952
 30
143.714690
 70
    32
  0
VERTEX
  5
675
330
650
100
AcDbEntity
  8
Lines
100
AcDbVertex
100
AcDb3dPolylineVertex
 10
319595.485756
 20
5261882.266212
 30
143.717733
 70
    32
  0
VERTEX
  5
676
330
650
100
AcDbEntity
  8
Lines
100
AcDbVertex
100
AcDb3dPolylineVertex
 10
319595.641710
 20
5261882.410706
 30
143.708182
 70
    32
  0
VERTEX
  5
677
330
650
100
AcDbEntity
  8
Lines
100
AcDbVertex
100
AcDb3dPolylineVertex
 10
319595.735970
 20
5261882.325915
 30
143.757089
 70
    32
  0
SEQEND
  5
678
330
650
100
AcDbEntity
  0
POLYLINE
  5
679
100
AcDbEntity
  8
DWAY
  6
Solid
 48
5.000000
100
AcDb3dPolyline
 66
     1
 10
0.0
 20
0.0
 30
0.0
 70
     8
 75
     0
  0
VERTEX
  5
680
330
679
100
AcDbEntity
  8
Lines
100
AcDbVertex
100
AcDb3dPolylineVertex
 10
319593.376026
 20
5261875.175295
 30
143.164412
 70
    32
  0
VERTEX
  5
681
330
679
100
AcDbEntity
  8
Lines
100
AcDbVertex
100
AcDb3dPolylineVertex
 10
319601.203265
 20
5261880.590355
 30
143.585969
 70
    32
  0
VERTEX
  5
682
330
679
100
AcDbEntity
  8
Lines
100
AcDbVertex
100
AcDb3dPolylineVertex
 10
319599.651516
 20
5261882.301424
 30
143.666338
 70
    32
  0
SEQEND
  5
683
330
679
100
AcDbEntity
  0
LINE
  5
684
100
AcDbEntity
  8
Lines
100
AcDbLine
 10
319604.728327
 20
5261887.142625
 30
142.926254
 11
319596.438599
 21
5261896.481686
 31
143.954540
  0
LINE
  5
685
100
AcDbEntity
  8
Lines
100
AcDbLine
 10
319604.825539
 20
5261887.228914
 30
142.926254
 11
319596.535811
 21
5261896.567975
 31
143.954540
  0
ENDSEC
  0
SECTION
  2
OBJECTS
  0
DICTIONARY
  5
C
100
AcDbDictionary
280
     0
281
     0
  3
ACAD_GROUP
350
D
  3
ACAD_MLINESTYLE
350
E
  3
ACAD_LAYOUT
350
25F
  3
ACAD_PLOTSETTINGS
350
263
  3
ACAD_PLOTSTYLENAME
350
260
  3
ACAD_WIPEOUT_VARS
350
264
  0
DICTIONARY
  5
D
102
{ACAD_REACTORS
330
C
102
}
100
AcDbDictionary
280
     0
281
     0
  0
DICTIONARY
  5
E
102
{ACAD_REACTORS
330
C
102
}
100
AcDbDictionary
280
     0
281
     0
  3
STANDARD
350
1C
  0
MLINESTYLE
  5
1C
102
{ACAD_REACTORS
330
E
102
}
100
AcDbMlineStyle
  2
STANDARD
 70
     0
  3

 62
     0
 51
90.0
 52
90.0
 71
     2
 49
0.5
 62
   256
  6
ByLayer
 49
-0.5
 62
   256
  6
ByLayer
  0
ACDBDICTIONARYWDFLT
  5
260
102
{ACAD_REACTORS
330
C
102
}
100
AcDbDictionary
281
     1
  3
Normal
350
25E
100
AcDbDictionaryWithDefault
  0
ACDBPLACEHOLDER
  5
25E
102
{ACAD_REACTORS
330
260
102
}
  0
LAYOUT
  5
261
102
{ACAD_REACTORS
330
25F
102
}
100
AcDbPlotSettings
  1

  2

  4

  6

 40
0.0
 41
0.0
 42
0.0
 43
0.0
 44
0.0
 45
0.0
 46
0.0
 47
0.0
 48
0.0
 49
0.0
140
0.0
141
0.0
142
1.0
143
1.0
 70
  1024
 72
     0
 73
     0
 74
     0
  7

 75
     0
147
1.0
148
0.0
149
0.0
100
AcDbLayout
  1
Model
 70
     0
 71
     0
 10
0.0
 20
0.0
 11
0.0
 21
0.0
 12
0.0
 22
0.0
 32
0.0
 14
0.0
 24
0.0
 34
0.0
 15
0.0
 25
0.0
 35
0.0
146
0.0
 13
0.0
 23
0.0
 33
0.0
 16
0.0
 26
0.0
 36
0.0
 17
0.0
 27
0.0
 37
0.0
 76
     0
330
19
331
0
345
0
346
0
  0
LAYOUT
  5
262
102
{ACAD_REACTORS
330
25F
102
}
100
AcDbPlotSettings
  1

  2

  4

  6

 40
0.0
 41
0.0
 42
0.0
 43
0.0
 44
0.0
 45
0.0
 46
0.0
 47
0.0
 48
0.0
 49
0.0
140
0.0
141
0.0
142
1.0
143
1.0
 70
     0
 72
     0
 73
     0
 74
     0
  7

 75
     0
147
1.0
148
0.0
149
0.0
100
AcDbLayout
  1
Layout1
 70
     0
 71
     0
 10
0.0
 20
0.0
 11
0.0
 21
0.0
 12
0.0
 22
0.0
 32
0.0
 14
0.0
 24
0.0
 34
0.0
 15
0.0
 25
0.0
 35
0.0
146
0.0
 13
0.0
 23
0.0
 33
0.0
 16
0.0
 26
0.0
 36
0.0
 17
0.0
 27
0.0
 37
0.0
 76
     0
330
16
331
0
345
0
346
0
  0
DICTIONARY
  5
25F
102
{ACAD_REACTORS
330
C
102
}
100
AcDbDictionary
280
     0
281
     1
  3
Layout1
350
262
  3
Model
350
261
  0
DICTIONARY
  5
263
102
{ACAD_REACTORS
330
C
102
}
100
AcDbDictionary
280
     0
281
     1
  0
WIPEOUTVARIABLES
  5
264
100
AcDbWipeoutVariables
 70
     1
  0
ENDSEC
  0
EOF
