  0
SECTION
  2
HEADER
  9
$ACADVER
  1
AC1021
  9
$ACADMAINTVER
 70
    50
  9
$DWGCODEPAGE
  3
ANSI_1252
  9
$INSBASE
 10
0.0
 20
0.0
 30
0.0
  9
$EXTMIN
 10
301921.033
 20
5260295.748
 30
42.984
  9
$EXTMAX
 10
303123.497
 20
5261157.923
 30
60.462
  9
$LIMMIN
 10
301921.033
 20
5260295.748
  9
$LIMMAX
 10
303123.497
 20
5261157.923
  9
$ORTHOMODE
 70
     0
  9
$REGENMODE
 70
     1
  9
$FILLMODE
 70
     1
  9
$QTEXTMODE
 70
     0
  9
$MIRRTEXT
 70
     1
  9
$LTSCALE
 40
1.0
  9
$ATTMODE
 70
     1
  9
$TEXTSIZE
 40
0.2
  9
$TRACEWID
 40
0.05
  9
$TEXTSTYLE
  7
MONOTEXT
  9
$CLAYER
  8
0
  9
$CELTYPE
  6
ByLayer
  9
$CECOLOR
 62
256
  9
$CELTSCALE
 40
1.0
  9
$DISPSILH
 70
     0
  9
$DIMSCALE
 40
1.0
  9
$DIMASZ
 40
0.18
  9
$DIMEXO
 40
0.0625
  9
$DIMDLI
 40
0.38
  9
$DIMRND
 40
0.0
  9
$DIMDLE
 40
0.0
  9
$DIMEXE
 40
0.18
  9
$DIMTP
 40
0.0
  9
$DIMTM
 40
0.0
  9
$DIMTXT
 40
0.18
  9
$DIMCEN
 40
0.09
  9
$DIMTSZ
 40
0.0
  9
$DIMTOL
 70
     0
  9
$DIMLIM
 70
     0
  9
$DIMTIH
 70
     1
  9
$DIMTOH
 70
     1
  9
$DIMSE1
 70
     0
  9
$DIMSE2
 70
     0
  9
$DIMTAD
 70
     0
  9
$DIMZIN
 70
     0
  9
$DIMBLK
  1

  9
$DIMASO
 70
     1
  9
$DIMSHO
 70
     0
  9
$DIMPOST
  1

  9
$DIMAPOST
  1

  9
$DIMALT
 70
     0
  9
$DIMALTD
 70
     2
  9
$DIMALTF
 40
25.4
  9
$DIMLFAC
 40
1.0
  9
$DIMTOFL
 70
     0
  9
$DIMTVP
 40
0.0
  9
$DIMTIX
 70
     0
  9
$DIMSOXD
 70
     0
  9
$DIMSAH
 70
     0
  9
$DIMBLK1
  1

  9
$DIMBLK2
  1

  9
$DIMSTYLE
  2
STANDARD
  9
$DIMCLRD
 70
     0
  9
$DIMCLRE
 70
     0
  9
$DIMCLRT
 70
     0
  9
$DIMTFAC
 40
1.0
  9
$DIMGAP
 40
0.09
  9
$DIMJUST
 70
     0
  9
$DIMSD1
 70
     0
  9
$DIMSD2
 70
     0
  9
$DIMTOLJ
 70
     1
  9
$DIMTZIN
 70
     0
  9
$DIMALTZ
 70
     0
  9
$DIMALTTZ
 70
     0
  9
$DIMUPT
 70
     0
  9
$DIMDEC
 70
     4
  9
$DIMTDEC
 70
     4
  9
$DIMALTU
 70
     2
  9
$DIMALTTD
 70
     2
  9
$DIMTXSTY
  7
MONOTEXT
  9
$DIMAUNIT
 70
     1
  9
$DIMADEC
 70
     0
  9
$DIMALTRND
 40
0.0
  9
$DIMAZIN
 70
     0
  9
$DIMDSEP
 70
     0
  9
$DIMATFIT
 70
     3
  9
$DIMFRAC
 70
     0
  9
$DIMLDRBLK
  1

  9
$DIMLUNIT
 70
     2
  9
$DIMLWD
 70
     0
  9
$DIMLWE
 70
     0
  9
$DIMTMOVE
 70
     0
  9
$LUNITS
 70
     6
  9
$LUPREC
 70
     4
  9
$SKETCHINC
 40
0.1
  9
$FILLETRAD
 40
0.0
  9
$AUNITS
 70
     1
  9
$AUPREC
 70
     0
  9
$MENU
  1
ACAD
  9
$ELEVATION
 40
0.0
  9
$PELEVATION
 40
0.0
  9
$THICKNESS
 40
0.0
  9
$LIMCHECK
 70
     0
  9
$CHAMFERA
 40
0.0
  9
$CHAMFERB
 40
0.0
  9
$CHAMFERC
 40
0.0
  9
$CHAMFERD
 40
0.0
  9
$SKPOLY
 70
     0
  9
$TDCREATE
 40
2461068.088912
  9
$TDUCREATE
 40
0.000000000
  9
$TDUPDATE
 40
0.000000000
  9
$TDUUPDATE
 40
2461068.088912
  9
$TDINDWG
 40
0.000000000
  9
$TDUSRTIMER
 40
0.000000000
  9
$USRTIMER
 70
     1
  9
$ANGBASE
 50
0.0
  9
$ANGDIR
 70
     0
  9
$PDMODE
 70
     0
  9
$PDSIZE
 40
0.0
  9
$PLINEWID
 40
0.0
  9
$SPLFRAME
 70
     0
  9
$SPLINETYPE
 70
     6
  9
$SPLINESEGS
 70
     8
  9
$HANDSEED
  5
2000000
  9
$SURFTAB1
 70
     6
  9
$SURFTAB2
 70
     6
  9
$SURFTYPE
 70
     6
  9
$SURFU
 70
     6
  9
$SURFV
 70
     6
  9
$UCSBASE
  2

  9
$UCSORG
 10
0.0
 20
0.0
 30
0.0
  9
$UCSXDIR
 10
1.0
 20
0.0
 30
0.0
  9
$UCSYDIR
 10
0.0
 20
1.0
 30
0.0
  9
$UCSORTHOREF
  2

  9
$UCSORTHOVIEW
 70
     0
  9
$UCSORGTOP
 10
0.0
 20
0.0
 30
0.0
  9
$UCSORGBOTTOM
 10
0.0
 20
0.0
 30
0.0
  9
$UCSORGLEFT
 10
0.0
 20
0.0
 30
0.0
  9
$UCSORGRIGHT
 10
0.0
 20
0.0
 30
0.0
  9
$UCSORGFRONT
 10
0.0
 20
0.0
 30
0.0
  9
$UCSORGBACK
 10
0.0
 20
0.0
 30
0.0
  9
$PUCSBASE
  2

  9
$PUCSNAME
  2

  9
$PUCSORG
 10
0.0
 20
0.0
 30
0.0
  9
$PUCSXDIR
 10
1.0
 20
0.0
 30
0.0
  9
$PUCSYDIR
 10
0.0
 20
1.0
 30
0.0
  9
$PUCSORTHOREF
  2

  9
$PUCSORTHOVIEW
 70
     0
  9
$PUCSORGTOP
 10
0.0
 20
0.0
 30
0.0
  9
$PUCSORGBOTTOM
 10
0.0
 20
0.0
 30
0.0
  9
$PUCSORGLEFT
 10
0.0
 20
0.0
 30
0.0
  9
$PUCSORGRIGHT
 10
0.0
 20
0.0
 30
0.0
  9
$PUCSORGFRONT
 10
0.0
 20
0.0
 30
0.0
  9
$PUCSORGBACK
 10
0.0
 20
0.0
 30
0.0
  9
$USERI1
 70
     0
  9
$USERI2
 70
     0
  9
$USERI3
 70
     0
  9
$USERI4
 70
     0
  9
$USERI5
 70
     0
  9
$USERR1
 40
0.0
  9
$USERR2
 40
0.0
  9
$USERR3
 40
0.0
  9
$USERR4
 40
0.0
  9
$USERR5
 40
0.0
  9
$WORLDVIEW
 70
     1
  9
$SHADEDGE
 70
     3
  9
$SHADEDIF
 70
    70
  9
$TILEMODE
 70
     1
  9
$MAXACTVP
 70
    16
  9
$PINSBASE
 10
0.0
 20
0.0
 30
0.0
  9
$PLIMCHECK
 70
     0
  9
$PEXTMIN
 10
1.000000E+20
 20
1.000000E+20
 30
1.000000E+20
  9
$PEXTMAX
 10
-1.000000E+20
 20
-1.000000E+20
 30
-1.000000E+20
  9
$PLIMMIN
 10
0.0
 20
0.0
  9
$PLIMMAX
 10
12.0
 20
9.0
  9
$UNITMODE
 70
     0
  9
$VISRETAIN
 70
     0
  9
$PLINEGEN
 70
     1
  9
$PSLTSCALE
 70
     1
  9
$TREEDEPTH
 70
  3020
  9
$CMLSTYLE
  2
STANDARD
  9
$CMLJUST
 70
     0
  9
$CMLSCALE
 40
1.0
  9
$PROXYGRAPHICS
 70
     0
  9
$MEASUREMENT
 70
     1
  9
$CELWEIGHT
370
    -1
  9
$ENDCAPS
280
     0
  9
$JOINSTYLE
280
     0
  9
$LWDISPLAY
290
     0
  9
$INSUNITS
 70
     6
  9
$HYPERLINKBASE
  1

  9
$STYLESHEET
  1

  9
$XEDIT
290
     1
  9
$CEPSNTYPE
380
     0
  9
$PSTYLEMODE
290
     1
  9
$FINGERPRINTGUID
  2

  9
$VERSIONGUID
  2

  9
$EXTNAMES
290
     1
  9
$PSVPSCALE
 40
0.0
  0
ENDSEC
  0
SECTION
  2
CLASSES
  0
CLASS
  1
LWPOLYLINE
  2
AcDbPolyline
  3
ObjectDBX Classes
 90
        0
 91
        0
280
     0
281
     1
  0
CLASS
  1
IMAGE
  2
AcDbRasterImage
  3
ISM
 90
        0
 91
        0
280
     0
281
     1
  0
CLASS
  1
OLE2FRAME
  2
AcDbOle2Frame
  3
ObjectDBX Classes
 90
        0
 91
        0
280
     0
281
     1
  0
CLASS
  1
HATCH
  2
AcDbHatch
  3
ObjectDBX Classes
 90
        0
 91
        0
280
     0
281
     1
  0
CLASS
  1
DICTIONARYVAR
  2
AcDbDictionaryVar
  3
ObjectDBX Classes
 90
        0
 91
        0
280
     0
281
     0
  0
CLASS
  1
RASTERVARIABLES
  2
AcDbRasterVariables
  3
ISM
 90
        0
 91
        0
280
     0
281
     0
  0
CLASS
  1
IMAGEDEF
  2
AcDbRasterImageDef
  3
ISM
 90
        0
 91
        0
280
     0
281
     0
  0
CLASS
  1
IMAGEDEF_REACTOR
  2
AcDbRasterImageDefReactor
  3
ISM
 90
        0
 91
        0
280
     0
281
     0
  0
CLASS
  1
IDBUFFER
  2
AcDbIdBuffer
  3
ObjectDBX Classes
 90
        0
 91
        0
280
     0
281
     0
  0
CLASS
  1
SPATIAL_FILTER
  2
AcDbSpatialFilter
  3
ObjectDBX Classes
 90
        0
 91
        0
280
     0
281
     0
  0
CLASS
  1
XRECORD
  2
AcDbXrecord
  3
ObjectDBX Classes
 90
        0
 91
        0
280
     0
281
     0
  0
CLASS
  1
SORTENTSTABLE
  2
AcDbSortentsTable
  3
ObjectDBX Classes
 90
        0
 91
        0
280
     0
281
     0
  0
CLASS
  1
LAYER_INDEX
  2
AcDbLayerIndex
  3
ObjectDBX Classes
 90
        0
 91
        0
280
     0
281
     0
  0
CLASS
  1
SPATIAL_INDEX
  2
AcDbSpatialIndex
  3
ObjectDBX Classes
 90
        0
 91
        0
280
     0
281
     0
  0
CLASS
  1
OBJECT_PTR
  2
CAseDLPNTableRecord
  3
ASE-LPNTableRecord
 90
        0
 91
        0
280
     0
281
     0
  0
CLASS
  1
LAYOUT
  2
AcDbLayout
  3
ObjectDBX Classes
 90
        0
 91
        0
280
     0
281
     0
  0
CLASS
  1
PLOTSETTINGS
  2
AcDbPlotSettings
  3
ObjectDBX Classes
 90
        0
 91
        0
280
     0
281
     0
  0
CLASS
  1
ACDBDICTIONARYWDFLT
  2
AcDbDictionaryWithDefault
  3
ObjectDBX Classes
 90
        0
 91
        0
280
     0
281
     0
  0
CLASS
  1
ACDBPLACEHOLDER
  2
AcDbPlaceHolder
  3
ObjectDBX Classes
 90
        0
 91
        0
280
     0
281
     0
  0
CLASS
  1
VBA_PROJECT
  2
AcDbVbaProject
  3
acadvba
 90
        0
 91
        0
280
     0
281
     0
  0
CLASS
  1
WIPEOUT
  2
AcDbWipeout
  3
WipeOut|AutoCAD Express Tool|expresstools@autodesk.com
 90
        0
 91
        0
280
     0
281
     1
  0
CLASS
  1
WIPEOUTVARIABLES
  2
AcDbWipeoutVariables
  3
WipeOut|AutoCAD Express Tool|expresstools@autodesk.com
 90
        0
 91
        0
280
     0
281
     0
  0
CLASS
  1
RTEXT
  2
RText
  3
RText|AutoCAD Express Tool|expresstools@autodesk.com
 90
        0
 91
        0
280
     0
281
     1
  0
CLASS
  1
ARCALIGNEDTEXT
  2
AcDbArcAlignedText
  3
ATEXT|AutoCAD Express Tool|expresstools@autodesk.com
 90
        0
 91
        0
280
     0
281
     1
  0
ENDSEC
  0
SECTION
  2
TABLES
  0
TABLE
  2
VPORT
  5
500
100
AcDbSymbolTable
 70
     1
  0
VPORT
  5
501
100
AcDbSymbolTableRecord
100
AcDbViewportTableRecord
  2
*ACTIVE
 70
     0
 10
0.0
 20
0.0
 11
1.0
 21
1.0
 12
302522.2648
 22
5260726.8356
 13
0.0
 23
0.0
 14
1.0
 24
1.0
 15
0.0
 25
0.0
 16
0.0
 26
0.0
 36
1.0
 17
0.0
 27
0.0
 37
0.0
 40
0.000003
 41
1.852941
 42
50.0
 43
0.0
 44
0.0
 50
0.0
 51
0.0
 71
     0
 72
   100
 73
     1
 74
     1
 75
     0
 76
     0
 77
     0
 78
     0
281
     0
 65
     0
110
0.0
120
0.0
130
0.0
111
1.0
121
0.0
131
0.0
112
0.0
122
1.0
132
0.0
345
0
346
0
 79
     0
146
0.0
  0
ENDTAB
  0
TABLE
  2
LTYPE
  5
502
100
AcDbSymbolTable
 70
     3
  0
LTYPE
  5
503
100
AcDbSymbolTableRecord
100
AcDbLinetypeTableRecord
  2
ByBlock
 70
     0
  3

 72
    65
 73
     0
 40
0.0
  0
LTYPE
  5
504
100
AcDbSymbolTableRecord
100
AcDbLinetypeTableRecord
  2
ByLayer
 70
     0
  3

 72
    65
 73
     0
 40
0.0
  0
LTYPE
  5
505
100
AcDbSymbolTableRecord
100
AcDbLinetypeTableRecord
  2
CONTINUOUS
 70
     0
  3
Solid line
 72
    65
 73
     0
 40
0.0
  0
LTYPE
  5
506
100
AcDbSymbolTableRecord
100
AcDbLinetypeTableRecord
  2
DASHED
 70
     0
  3
Dashed line
 72
    65
 73
     2
 40
10.0
 49
5.0
 74
     0
 49
-5.0
 74
     0
  0
LTYPE
  5
507
100
AcDbSymbolTableRecord
100
AcDbLinetypeTableRecord
  2
Solid
 70
     0
  3
Solid
 72
    65
 73
     0
 40
0.0
  0
ENDTAB
  0
TABLE
  2
LAYER
  5
508
100
AcDbSymbolTable
 70
     1
  0
LAYER
  5
509
100
AcDbSymbolTableRecord
100
AcDbLayerTableRecord
  2
0
 70
     0
 62
     7
  6
CONTINUOUS
290
     1
370
     0
390
25E
  0
LAYER
  5
510
100
AcDbSymbolTableRecord
100
AcDbLayerTableRecord
  2
Points
 70
     0
 62
     7
  6
CONTINUOUS
290
     1
370
     0
390
25E
  0
LAYER
  5
511
100
AcDbSymbolTableRecord
100
AcDbLayerTableRecord
  2
Lines
 70
     0
 62
     7
  6
CONTINUOUS
290
     1
370
     0
390
25E
  0
LAYER
  5
512
100
AcDbSymbolTableRecord
100
AcDbLayerTableRecord
  2
Landscape
 70
     0
 62
     7
  6
Solid
290
     1
370
     0
390
25E
  0
LAYER
  5
513
100
AcDbSymbolTableRecord
100
AcDbLayerTableRecord
  2
CURB - BACK
 70
     0
 62
   215
  6
Solid
290
     1
370
     0
390
25E
  0
LAYER
  5
514
100
AcDbSymbolTableRecord
100
AcDbLayerTableRecord
  2
BLDG - EXT
 70
     0
 62
    27
  6
Solid
290
     1
370
     0
390
25E
  0
LAYER
  5
515
100
AcDbSymbolTableRecord
100
AcDbLayerTableRecord
  2
UtilityWater
 70
     0
 62
     7
  6
Solid
290
     1
370
     0
390
25E
  0
LAYER
  5
516
100
AcDbSymbolTableRecord
100
AcDbLayerTableRecord
  2
CURB - BOTTOM
 70
     0
 62
   215
  6
Solid
290
     1
370
     0
390
25E
  0
LAYER
  5
517
100
AcDbSymbolTableRecord
100
AcDbLayerTableRecord
  2
SLOPE - BOTTOM
 70
     0
 62
     5
  6
Solid
290
     1
370
     0
390
25E
  0
LAYER
  5
518
100
AcDbSymbolTableRecord
100
AcDbLayerTableRecord
  2
Roadway
 70
     0
 62
     7
  6
Solid
290
     1
370
     0
390
25E
  0
LAYER
  5
519
100
AcDbSymbolTableRecord
100
AcDbLayerTableRecord
  2
Structures
 70
     0
 62
     7
  6
Solid
290
     1
370
     0
390
25E
  0
LAYER
  5
520
100
AcDbSymbolTableRecord
100
AcDbLayerTableRecord
  2
CATCH BASIN
 70
     0
 62
   131
  6
Solid
290
     1
370
     0
390
25E
  0
LAYER
  5
521
100
AcDbSymbolTableRecord
100
AcDbLayerTableRecord
  2
EVID - NEW
 70
     0
 62
     1
  6
Solid
290
     1
370
     0
390
25E
  0
LAYER
  5
522
100
AcDbSymbolTableRecord
100
AcDbLayerTableRecord
  2
CONC
 70
     0
 62
    19
  6
Solid
290
     1
370
     0
390
25E
  0
LAYER
  5
523
100
AcDbSymbolTableRecord
100
AcDbLayerTableRecord
  2
BLDG - DECK
 70
     0
 62
    19
  6
Solid
290
     1
370
     0
390
25E
  0
LAYER
  5
524
100
AcDbSymbolTableRecord
100
AcDbLayerTableRecord
  2
DWAY
 70
     0
 62
   215
  6
Solid
290
     1
370
     0
390
25E
  0
LAYER
  5
525
100
AcDbSymbolTableRecord
100
AcDbLayerTableRecord
  2
ELEC - STRUCTURE
 70
     0
 62
    15
  6
Solid
290
     1
370
     0
390
25E
  0
LAYER
  5
526
100
AcDbSymbolTableRecord
100
AcDbLayerTableRecord
  2
ROAD-EXT-ASPH-EDGE
 70
     0
 62
   215
  6
Solid
290
     1
370
     0
390
25E
  0
LAYER
  5
527
100
AcDbSymbolTableRecord
100
AcDbLayerTableRecord
  2
FENCE
 70
     0
 62
    19
  6
Solid
290
     1
370
     0
390
25E
  0
LAYER
  5
528
100
AcDbSymbolTableRecord
100
AcDbLayerTableRecord
  2
EVID - EXT
 70
     0
 62
   212
  6
Solid
290
     1
370
     0
390
25E
  0
LAYER
  5
529
100
AcDbSymbolTableRecord
100
AcDbLayerTableRecord
  2
ROAD-EXT-GRAV-EDGE
 70
     0
 62
   215
  6
Solid
290
     1
370
     0
390
25E
  0
LAYER
  5
530
100
AcDbSymbolTableRecord
100
AcDbLayerTableRecord
  2
GUTTER
 70
     0
 62
   215
  6
Solid
290
     1
370
     0
390
25E
  0
LAYER
  5
531
100
AcDbSymbolTableRecord
100
AcDbLayerTableRecord
  2
UtilityElec
 70
     0
 62
     7
  6
Solid
290
     1
370
     0
390
25E
  0
LAYER
  5
532
100
AcDbSymbolTableRecord
100
AcDbLayerTableRecord
  2
MANHOLE
 70
     0
 62
    55
  6
Solid
290
     1
370
     0
390
25E
  0
LAYER
  5
533
100
AcDbSymbolTableRecord
100
AcDbLayerTableRecord
  2
SurveyControl
 70
     0
 62
     7
  6
Solid
290
     1
370
     0
390
25E
  0
LAYER
  5
534
100
AcDbSymbolTableRecord
100
AcDbLayerTableRecord
  2
ELEC - LINE
 70
     0
 62
    15
  6
Solid
290
     1
370
     0
390
25E
  0
LAYER
  5
535
100
AcDbSymbolTableRecord
100
AcDbLayerTableRecord
  2
EXT-OHWM
 70
     0
 62
   124
  6
Solid
290
     1
370
     0
390
25E
  0
LAYER
  5
536
100
AcDbSymbolTableRecord
100
AcDbLayerTableRecord
  2
RAIL
 70
     0
 62
    19
  6
Solid
290
     1
370
     0
390
25E
  0
LAYER
  5
537
100
AcDbSymbolTableRecord
100
AcDbLayerTableRecord
  2
EXT-WALL
 70
     0
 62
    28
  6
Solid
290
     1
370
     0
390
25E
  0
LAYER
  5
538
100
AcDbSymbolTableRecord
100
AcDbLayerTableRecord
  2
ROWStructures
 70
     0
 62
     7
  6
Solid
290
     1
370
     0
390
25E
  0
LAYER
  5
539
100
AcDbSymbolTableRecord
100
AcDbLayerTableRecord
  2
BLDG - STEPS
 70
     0
 62
    19
  6
Solid
290
     1
370
     0
390
25E
  0
LAYER
  5
540
100
AcDbSymbolTableRecord
100
AcDbLayerTableRecord
  2
UtilityStorm
 70
     0
 62
     7
  6
Solid
290
     1
370
     0
390
25E
  0
LAYER
  5
541
100
AcDbSymbolTableRecord
100
AcDbLayerTableRecord
  2
SIDEWALK
 70
     0
 62
   215
  6
Solid
290
     1
370
     0
390
25E
  0
LAYER
  5
542
100
AcDbSymbolTableRecord
100
AcDbLayerTableRecord
  2
CURB - TOP
 70
     0
 62
   215
  6
Solid
290
     1
370
     0
390
25E
  0
LAYER
  5
543
100
AcDbSymbolTableRecord
100
AcDbLayerTableRecord
  2
SLOPE - TOP
 70
     0
 62
    40
  6
Solid
290
     1
370
     0
390
25E
  0
LAYER
  5
544
100
AcDbSymbolTableRecord
100
AcDbLayerTableRecord
  2
Utility
 70
     0
 62
     7
  6
Solid
290
     1
370
     0
390
25E
  0
ENDTAB
  0
TABLE
  2
STYLE
  5
545
100
AcDbSymbolTable
 70
     2
  0
STYLE
  5
546
100
AcDbSymbolTableRecord
100
AcDbTextStyleTableRecord
  2
STANDARD
 70
     0
 40
0.0
 41
1.0
 50
0.0
 71
     0
 42
0.2
  3
txt
  4

  0
STYLE
  5
547
100
AcDbSymbolTableRecord
100
AcDbTextStyleTableRecord
  2
MONOTEXT
 70
     0
 40
0.0
 41
1.0
 50
0.0
 71
     0
 42
0.2
  3
txt
  4

  0
ENDTAB
  0
TABLE
  2
VIEW
  5
548
100
AcDbSymbolTable
 70
     0
  0
ENDTAB
  0
TABLE
  2
UCS
  5
549
100
AcDbSymbolTable
 70
     0
  0
ENDTAB
  0
TABLE
  2
APPID
  5
550
100
AcDbSymbolTable
 70
     1
  0
APPID
  5
551
100
AcDbSymbolTableRecord
100
AcDbRegAppTableRecord
  2
ACAD
 70
     0
  0
ENDTAB
  0
TABLE
  2
DIMSTYLE
  5
552
100
AcDbSymbolTable
 70
     1
100
AcDbDimStyleTable
 71
     0
  0
DIMSTYLE
105
256
100
AcDbSymbolTableRecord
100
AcDbDimStyleTableRecord
  2
STANDARD
 70
     0
  3

  4

 40
1.0
 41
0.18
 42
0.0625
 43
0.38
 44
0.18
 45
0.0
 46
0.0
 47
0.0
 48
0.0
 71
     0
 72
     0
 73
     1
 74
     1
 75
     0
 76
     0
 77
     0
 78
     0
 79
     0
140
0.18
141
0.09
142
0.0
143
25.4
144
1.0
145
0.0
146
1.0
147
0.09
148
0.0
170
     0
171
     2
172
     0
173
     0
174
     0
175
     0
176
     0
177
     0
178
     0
179
     0
271
     4
272
     4
273
     2
274
     2
275
     0
276
     0
277
     2
278
    46
279
     0
280
     0
281
     0
282
     0
283
     1
284
     0
285
     0
286
     0
288
     0
341
0
342
0
343
0
344
0
371
    -2
372
    -2
  0
ENDTAB
  0
TABLE
  2
BLOCK_RECORD
  5
553
100
AcDbSymbolTable
 70
    10
  0
BLOCK_RECORD
  5
554
100
AcDbSymbolTableRecord
100
AcDbBlockTableRecord
  2
*MODEL_SPACE
  0
BLOCK_RECORD
  5
555
100
AcDbSymbolTableRecord
100
AcDbBlockTableRecord
  2
*PAPER_SPACE
  0
BLOCK_RECORD
  5
556
100
AcDbSymbolTableRecord
100
AcDbBlockTableRecord
  2
DOT
  0
BLOCK_RECORD
  5
557
100
AcDbSymbolTableRecord
100
AcDbBlockTableRecord
  2
CROSS
  0
BLOCK_RECORD
  5
558
100
AcDbSymbolTableRecord
100
AcDbBlockTableRecord
  2
DIAG_CROSS
  0
BLOCK_RECORD
  5
559
100
AcDbSymbolTableRecord
100
AcDbBlockTableRecord
  2
CIRCLE
  0
BLOCK_RECORD
  5
560
100
AcDbSymbolTableRecord
100
AcDbBlockTableRecord
  2
DOUBLE_CIRCLE
  0
BLOCK_RECORD
  5
561
100
AcDbSymbolTableRecord
100
AcDbBlockTableRecord
  2
TRIANGLE
  0
BLOCK_RECORD
  5
562
100
AcDbSymbolTableRecord
100
AcDbBlockTableRecord
  2
DOUBLE_TRIANGLE
  0
BLOCK_RECORD
  5
563
100
AcDbSymbolTableRecord
100
AcDbBlockTableRecord
  2
STAKED_FLAG
  0
BLOCK_RECORD
  5
564
100
AcDbSymbolTableRecord
100
AcDbBlockTableRecord
  2
BOX
  0
BLOCK_RECORD
  5
565
100
AcDbSymbolTableRecord
100
AcDbBlockTableRecord
  2
TEXT
  0
ENDTAB
  0
ENDSEC
  0
SECTION
  2
BLOCKS
  0
BLOCK
  5
566
100
AcDbEntity
  8
0
100
AcDbBlockBegin
  2
*MODEL_SPACE
 70
     0
 10
0.0
 20
0.0
 30
0.0
  3
*MODEL_SPACE
  1

  0
ENDBLK
  5
567
100
AcDbEntity
  8
0
100
AcDbBlockEnd
  0
BLOCK
  5
568
100
AcDbEntity
 67
     1
  8
0
100
AcDbBlockBegin
  2
*PAPER_SPACE
 70
     0
 10
0.0
 20
0.0
 30
0.0
  3
*PAPER_SPACE
  1

  0
ENDBLK
  5
569
100
AcDbEntity
 67
     1
  8
0
100
AcDbBlockEnd
  0
BLOCK
  5
570
100
AcDbEntity
  8
0
 62
     0
370
0.000000
100
AcDbBlockBegin
  2
DOT
 70
     2
 10
1.000000
 20
1.000000
 30
0.000000
  3
DOT
  1

  0
POINT
  5
571
100
AcDbEntity
  8
0
 62
     0
100
AcDbPoint
 10
1.000000
 20
1.000000
 30
0.000000
  0
ENDBLK
  5
572
100
AcDbEntity
  8
0
100
AcDbBlockEnd
  0
BLOCK
  5
573
100
AcDbEntity
  8
0
 62
     0
370
0.000000
100
AcDbBlockBegin
  2
CROSS
 70
     2
 10
1.000000
 20
1.000000
 30
0.000000
  3
CROSS
  1

  0
LINE
  5
574
100
AcDbEntity
  8
0
 62
     0
370
0.000000
100
AcDbLine
 10
0.000000
 20
1.000000
 11
2.000000
 21
1.000000
  0
LINE
  5
575
100
AcDbEntity
  8
0
 62
     0
370
0.000000
100
AcDbLine
 10
1.000000
 20
2.000000
 11
1.000000
 21
0.000000
  0
ENDBLK
  5
576
100
AcDbEntity
  8
0
100
AcDbBlockEnd
  0
BLOCK
  5
577
100
AcDbEntity
  8
0
 62
     0
370
0.000000
100
AcDbBlockBegin
  2
DIAG_CROSS
 70
     2
 10
1.000000
 20
1.000000
 30
0.000000
  3
DIAG_CROSS
  1

  0
LINE
  5
578
100
AcDbEntity
  8
0
 62
     0
370
0.000000
100
AcDbLine
 10
0.000000
 20
2.000000
 11
2.000000
 21
0.000000
  0
LINE
  5
579
100
AcDbEntity
  8
0
 62
     0
370
0.000000
100
AcDbLine
 10
0.000000
 20
0.000000
 11
2.000000
 21
2.000000
  0
ENDBLK
  5
580
100
AcDbEntity
  8
0
100
AcDbBlockEnd
  0
BLOCK
  5
581
100
AcDbEntity
  8
0
 62
     0
370
0.000000
100
AcDbBlockBegin
  2
CIRCLE
 70
     2
 10
1.000000
 20
1.000000
 30
0.000000
  3
CIRCLE
  1

  0
ARC
  5
582
100
AcDbEntity
  8
0
 62
     0
370
0.000000
100
AcDbCircle
 10
1.000000
 20
1.000000
 40
1.000000
100
AcDbArc
 50
270.000000
 51
90.000000
  0
ARC
  5
583
100
AcDbEntity
  8
0
 62
     0
370
0.000000
100
AcDbCircle
 10
1.000000
 20
1.000000
 40
1.000000
100
AcDbArc
 50
90.000000
 51
270.000000
  0
ENDBLK
  5
584
100
AcDbEntity
  8
0
100
AcDbBlockEnd
  0
BLOCK
  5
585
100
AcDbEntity
  8
0
 62
     0
370
0.000000
100
AcDbBlockBegin
  2
DOUBLE_CIRCLE
 70
     2
 10
1.000000
 20
1.000000
 30
0.000000
  3
DOUBLE_CIRCLE
  1

  0
ARC
  5
586
100
AcDbEntity
  8
0
 62
     0
370
0.000000
100
AcDbCircle
 10
1.000000
 20
1.000000
 40
1.000000
100
AcDbArc
 50
270.000000
 51
90.000000
  0
ARC
  5
587
100
AcDbEntity
  8
0
 62
     0
370
0.000000
100
AcDbCircle
 10
1.000000
 20
1.000000
 40
1.000000
100
AcDbArc
 50
90.000000
 51
270.000000
  0
ARC
  5
588
100
AcDbEntity
  8
0
 62
     0
370
0.000000
100
AcDbCircle
 10
1.000000
 20
1.000000
 40
0.700000
100
AcDbArc
 50
270.000000
 51
90.000000
  0
ARC
  5
589
100
AcDbEntity
  8
0
 62
     0
370
0.000000
100
AcDbCircle
 10
1.000000
 20
1.000000
 40
0.700000
100
AcDbArc
 50
90.000000
 51
270.000000
  0
ENDBLK
  5
590
100
AcDbEntity
  8
0
100
AcDbBlockEnd
  0
BLOCK
  5
591
100
AcDbEntity
  8
0
 62
     0
370
0.000000
100
AcDbBlockBegin
  2
TRIANGLE
 70
     2
 10
1.000000
 20
0.800000
 30
0.000000
  3
TRIANGLE
  1

  0
LINE
  5
592
100
AcDbEntity
  8
0
 62
     0
370
0.000000
100
AcDbLine
 10
0.000000
 20
0.200000
 11
2.000000
 21
0.200000
  0
LINE
  5
593
100
AcDbEntity
  8
0
 62
     0
370
0.000000
100
AcDbLine
 10
0.000000
 20
0.200000
 11
1.000000
 21
1.900000
  0
LINE
  5
594
100
AcDbEntity
  8
0
 62
     0
370
0.000000
100
AcDbLine
 10
1.000000
 20
1.900000
 11
2.000000
 21
0.200000
  0
ENDBLK
  5
595
100
AcDbEntity
  8
0
100
AcDbBlockEnd
  0
BLOCK
  5
596
100
AcDbEntity
  8
0
 62
     0
370
0.000000
100
AcDbBlockBegin
  2
DOUBLE_TRIANGLE
 70
     2
 10
1.000000
 20
0.800000
 30
0.000000
  3
DOUBLE_TRIANGLE
  1

  0
LINE
  5
597
100
AcDbEntity
  8
0
 62
     0
370
0.000000
100
AcDbLine
 10
1.000000
 20
1.900000
 11
0.000000
 21
0.200000
  0
LINE
  5
598
100
AcDbEntity
  8
0
 62
     0
370
0.000000
100
AcDbLine
 10
2.000000
 20
0.200000
 11
1.000000
 21
1.900000
  0
LINE
  5
599
100
AcDbEntity
  8
0
 62
     0
370
0.000000
100
AcDbLine
 10
0.000000
 20
0.200000
 11
2.000000
 21
0.200000
  0
LINE
  5
600
100
AcDbEntity
  8
0
 62
     0
370
0.000000
100
AcDbLine
 10
0.520000
 20
0.500000
 11
1.480000
 21
0.500000
  0
LINE
  5
601
100
AcDbEntity
  8
0
 62
     0
370
0.000000
100
AcDbLine
 10
0.520000
 20
0.500000
 11
1.000000
 21
1.340000
  0
LINE
  5
602
100
AcDbEntity
  8
0
 62
     0
370
0.000000
100
AcDbLine
 10
1.000000
 20
1.340000
 11
1.480000
 21
0.500000
  0
ENDBLK
  5
603
100
AcDbEntity
  8
0
100
AcDbBlockEnd
  0
BLOCK
  5
604
100
AcDbEntity
  8
0
 62
     0
370
0.000000
100
AcDbBlockBegin
  2
STAKED_FLAG
 70
     2
 10
1.000000
 20
1.000000
 30
0.000000
  3
STAKED_FLAG
  1

  0
LINE
  5
605
100
AcDbEntity
  8
0
 62
     0
370
0.000000
100
AcDbLine
 10
1.000000
 20
0.200000
 11
1.000000
 21
1.800000
  0
LINE
  5
606
100
AcDbEntity
  8
0
 62
     0
370
0.000000
100
AcDbLine
 10
1.000000
 20
1.800000
 11
1.500000
 21
1.400000
  0
LINE
  5
607
100
AcDbEntity
  8
0
 62
     0
370
0.000000
100
AcDbLine
 10
1.500000
 20
1.400000
 11
1.000000
 21
1.000000
  0
ENDBLK
  5
608
100
AcDbEntity
  8
0
100
AcDbBlockEnd
  0
BLOCK
  5
609
100
AcDbEntity
  8
0
 62
     0
370
0.000000
100
AcDbBlockBegin
  2
BOX
 70
     2
 10
1.000000
 20
1.000000
 30
0.000000
  3
BOX
  1

  0
LINE
  5
610
100
AcDbEntity
  8
0
 62
     0
370
0.000000
100
AcDbLine
 10
0.000000
 20
0.000000
 11
2.000000
 21
0.000000
  0
LINE
  5
611
100
AcDbEntity
  8
0
 62
     0
370
0.000000
100
AcDbLine
 10
2.000000
 20
0.000000
 11
2.000000
 21
2.000000
  0
LINE
  5
612
100
AcDbEntity
  8
0
 62
     0
370
0.000000
100
AcDbLine
 10
2.000000
 20
2.000000
 11
0.000000
 21
2.000000
  0
LINE
  5
613
100
AcDbEntity
  8
0
 62
     0
370
0.000000
100
AcDbLine
 10
0.000000
 20
2.000000
 11
0.000000
 21
0.000000
  0
ENDBLK
  5
614
100
AcDbEntity
  8
0
100
AcDbBlockEnd
  0
BLOCK
  5
615
100
AcDbEntity
  8
0
 62
     0
370
0.000000
100
AcDbBlockBegin
  2
TEXT
 70
     2
 10
1.000000
 20
1.000000
 30
0.000000
  3
TEXT
  1

  0
TEXT
  5
616
100
AcDbEntity
  8
0
  6
ByLayer
 62
     0
370
-1.000000
100
AcDbText
 10
1.000000
 20
1.000000
 30
0.000000
 40
40.000000
  1
TEXT
 50
0.000000
 41
1.000000
 51
0.000000
  7
STANDARD
 71
0.000000
210
0.000000
220
0.000000
230
1.000000
100
AcDbText
  0
ENDBLK
  5
617
100
AcDbEntity
  8
0
100
AcDbBlockEnd
  0
ENDSEC
  0
SECTION
  2
ENTITIES
  0
LINE
  5
618
100
AcDbEntity
  8
BLDG - EXT
100
AcDbLine
  6
Solid
 10
303095.430145
 20
5261022.769427
 30
46.733156
 11
303098.097158
 21
5261019.098815
 31
46.589267
  0
LINE
  5
619
100
AcDbEntity
  8
Structures
100
AcDbLine
 62
     0
  6
Solid
 10
303097.083128
 20
5261017.927825
 30
46.303407
 11
303095.837066
 21
5261016.962776
 31
46.097823
  0
LINE
  5
620
100
AcDbEntity
  8
Structures
100
AcDbLine
 62
     0
  6
Solid
 10
303097.121353
 20
5261018.195335
 30
46.476247
 11
303095.571556
 21
5261017.027956
 31
46.277720
  0
LINE
  5
621
100
AcDbEntity
  8
Structures
100
AcDbLine
 62
     0
  6
Solid
 10
303094.772051
 20
5261016.430621
 30
46.175509
 11
303092.920640
 21
5261015.129039
 31
45.788770
  0
LINE
  5
622
100
AcDbEntity
  8
BLDG - EXT
100
AcDbLine
  6
Solid
 10
303098.106049
 20
5261019.400138
 30
46.630321
 11
303089.527714
 21
5261013.180928
 31
45.478495
  0
LINE
  5
623
100
AcDbEntity
  8
BLDG - EXT
100
AcDbLine
  6
Solid
 10
303097.539415
 20
5261025.809631
 30
46.696473
 11
303093.529323
 21
5261031.380036
 31
46.670124
  0
LINE
  5
624
100
AcDbEntity
  8
SIDEWALK
100
AcDbLine
  6
Solid
 10
303104.880540
 20
5261034.665855
 30
46.488563
 11
303106.082650
 21
5261035.356867
 31
46.392586
  0
LINE
  5
625
100
AcDbEntity
  8
ELEC - LINE
100
AcDbLine
  6
Solid
 10
303102.760628
 20
5261035.304517
 30
46.573283
 11
303116.452161
 21
5261042.067768
 31
46.404818
  0
LINE
  5
626
100
AcDbEntity
  8
ROAD-EXT-GRAV-EDGE
100
AcDbLine
  6
Solid
 10
303091.313121
 20
5261030.962659
 30
46.354511
 11
303079.046883
 21
5261022.621509
 31
44.761556
  0
LINE
  5
627
100
AcDbEntity
  8
BLDG - EXT
100
AcDbLine
  6
Solid
 10
303093.721933
 20
5261031.332647
 30
46.740509
 11
303079.564397
 21
5261021.118550
 31
44.758017
  0
LINE
  5
628
100
AcDbEntity
  8
BLDG - EXT
100
AcDbLine
  6
Solid
 10
303079.632026
 20
5261021.390135
 30
44.772460
 11
303082.412610
 21
5261017.527269
 31
46.205063
  0
LINE
  5
629
100
AcDbEntity
  8
BLDG - STEPS
100
AcDbLine
  6
Solid
 10
303082.363416
 20
5261017.522398
 30
46.229757
 11
303083.469707
 21
5261016.090785
 31
46.840831
  0
LINE
  5
630
100
AcDbEntity
  8
BLDG - STEPS
100
AcDbLine
  6
Solid
 10
303080.543687
 20
5261018.249634
 30
44.760065
 11
303081.094208
 21
5261018.701311
 31
44.789141
  0
LINE
  5
631
100
AcDbEntity
  8
BLDG - STEPS
100
AcDbLine
  6
Solid
 10
303085.760706
 20
5261012.493059
 30
44.972066
 11
303085.025226
 21
5261011.934155
 31
45.037415
  0
LINE
  5
632
100
AcDbEntity
  8
BLDG - EXT
100
AcDbLine
  6
Solid
 10
303068.434211
 20
5261013.781514
 30
44.544021
 11
303064.558339
 21
5261018.927113
 31
44.321594
  0
LINE
  5
633
100
AcDbEntity
  8
BLDG - EXT
100
AcDbLine
  6
Solid
 10
303064.512736
 20
5261018.769949
 30
44.372767
 11
303068.254680
 21
5261021.525720
 31
44.413208
  0
LINE
  5
634
100
AcDbEntity
  8
FENCE
100
AcDbLine
  6
Solid
 10
303061.444513
 20
5261020.609146
 30
43.983892
 11
303059.435685
 21
5261019.618188
 31
43.907569
  0
LINE
  5
635
100
AcDbEntity
  8
FENCE
100
AcDbLine
  6
Solid
 10
303072.052631
 20
5261002.649555
 30
44.938841
 11
303065.919155
 21
5261000.093012
 31
44.519903
  0
POLYLINE
  5
636
100
AcDbEntity
  8
CONC
  6
Solid
 48
5.000000
100
AcDb3dPolyline
 66
     1
 10
0.0
 20
0.0
 30
0.0
 70
     8
 75
     0
  0
VERTEX
  5
637
330
636
100
AcDbEntity
  8
Lines
100
AcDbVertex
100
AcDb3dPolylineVertex
 10
303091.255879
 20
5261031.450386
 30
46.468472
 70
    32
  0
VERTEX
  5
638
330
636
100
AcDbEntity
  8
Lines
100
AcDbVertex
100
AcDb3dPolylineVertex
 10
303093.458995
 20
5261032.958964
 30
46.747410
 70
    32
  0
VERTEX
  5
639
330
636
100
AcDbEntity
  8
Lines
100
AcDbVertex
100
AcDb3dPolylineVertex
 10
303098.191803
 20
5261026.483166
 30
46.751524
 70
    32
  0
SEQEND
  5
640
330
636
100
AcDbEntity
  0
POLYLINE
  5
641
100
AcDbEntity
  8
DWAY
  6
Solid
 48
5.000000
100
AcDb3dPolyline
 66
     1
 10
0.0
 20
0.0
 30
0.0
 70
     8
 75
     0
  0
VERTEX
  5
642
330
641
100
AcDbEntity
  8
Lines
100
AcDbVertex
100
AcDb3dPolylineVertex
 10
303098.191803
 20
5261026.483166
 30
46.751524
 70
    32
  0
VERTEX
  5
643
330
641
100
AcDbEntity
  8
Lines
100
AcDbVertex
100
AcDb3dPolylineVertex
 10
303105.031605
 20
5261031.278910
 30
46.652946
 70
    32
  0
VERTEX
  5
644
330
641
100
AcDbEntity
  8
Lines
100
AcDbVertex
100
AcDb3dPolylineVertex
 10
303106.382458
 20
5261032.162985
 30
46.623978
 70
    32
  0
SEQEND
  5
645
330
641
100
AcDbEntity
  0
POLYLINE
  5
646
100
AcDbEntity
  8
ROAD-EXT-ASPH-EDGE
  6
Solid
 48
5.000000
100
AcDb3dPolyline
 66
     1
 10
0.0
 20
0.0
 30
0.0
 70
     8
 75
     0
  0
VERTEX
  5
647
330
646
100
AcDbEntity
  8
Lines
100
AcDbVertex
100
AcDb3dPolylineVertex
 10
303100.793859
 20
5261043.759507
 30
46.252761
 70
    32
  0
VERTEX
  5
648
330
646
100
AcDbEntity
  8
Lines
100
AcDbVertex
100
AcDb3dPolylineVertex
 10
303107.118598
 20
5261033.847847
 30
46.419955
 70
    32
  0
VERTEX
  5
649
330
646
100
AcDbEntity
  8
Lines
100
AcDbVertex
100
AcDb3dPolylineVertex
 10
303108.697582
 20
5261031.870419
 30
46.466848
 70
    32
  0
VERTEX
  5
650
330
646
100
AcDbEntity
  8
Lines
100
AcDbVertex
100
AcDb3dPolylineVertex
 10
303110.322493
 20
5261029.930863
 30
46.513742
 70
    32
  0
VERTEX
  5
651
330
646
100
AcDbEntity
  8
Lines
100
AcDbVertex
100
AcDb3dPolylineVertex
 10
303111.959637
 20
5261028.001621
 30
46.560635
 70
    32
  0
VERTEX
  5
652
330
646
100
AcDbEntity
  8
Lines
100
AcDbVertex
100
AcDb3dPolylineVertex
 10
303113.608947
 20
5261026.082770
 30
46.607528
 70
    32
  0
VERTEX
  5
653
330
646
100
AcDbEntity
  8
Lines
100
AcDbVertex
100
AcDb3dPolylineVertex
 10
303115.270358
 20
5261024.174387
 30
46.654421
 70
    32
  0
VERTEX
  5
654
330
646
100
AcDbEntity
  8
Lines
100
AcDbVertex
100
AcDb3dPolylineVertex
 10
303115.439650
 20
5261023.981290
 30
46.659181
 70
    32
  0
SEQEND
  5
655
330
646
100
AcDbEntity
  0
POLYLINE
  5
656
100
AcDbEntity
  8
BLDG - DECK
  6
Solid
 48
5.000000
100
AcDb3dPolyline
 66
     1
 10
0.0
 20
0.0
 30
0.0
 70
     8
 75
     0
  0
VERTEX
  5
657
330
656
100
AcDbEntity
  8
Lines
100
AcDbVertex
100
AcDb3dPolylineVertex
 10
303082.363416
 20
5261017.522398
 30
46.229757
 70
    32
  0
VERTEX
  5
658
330
656
100
AcDbEntity
  8
Lines
100
AcDbVertex
100
AcDb3dPolylineVertex
 10
303081.402942
 20
5261016.905161
 30
46.232256
 70
    32
  0
VERTEX
  5
659
330
656
100
AcDbEntity
  8
Lines
100
AcDbVertex
100
AcDb3dPolylineVertex
 10
303080.236384
 20
5261018.472252
 30
44.814086
 70
    32
  0
VERTEX
  5
660
330
656
100
AcDbEntity
  8
Lines
100
AcDbVertex
100
AcDb3dPolylineVertex
 10
303075.300904
 20
5261014.938692
 30
44.759527
 70
    32
  0
VERTEX
  5
661
330
656
100
AcDbEntity
  8
Lines
100
AcDbVertex
100
AcDb3dPolylineVertex
 10
303074.792405
 20
5261012.179882
 30
44.881794
 70
    32
  0
VERTEX
  5
662
330
656
100
AcDbEntity
  8
Lines
100
AcDbVertex
100
AcDb3dPolylineVertex
 10
303078.201686
 20
5261007.508793
 30
44.973494
 70
    32
  0
VERTEX
  5
663
330
656
100
AcDbEntity
  8
Lines
100
AcDbVertex
100
AcDb3dPolylineVertex
 10
303080.903600
 20
5261007.100781
 30
45.016963
 70
    32
  0
VERTEX
  5
664
330
656
100
AcDbEntity
  8
Lines
100
AcDbVertex
100
AcDb3dPolylineVertex
 10
303085.875776
 20
5261010.679477
 30
45.083852
 70
    32
  0
VERTEX
  5
665
330
656
100
AcDbEntity
  8
Lines
100
AcDbVertex
100
AcDb3dPolylineVertex
 10
303084.092906
 20
5261013.057831
 30
46.032909
 70
    32
  0
VERTEX
  5
666
330
656
100
AcDbEntity
  8
Lines
100
AcDbVertex
100
AcDb3dPolylineVertex
 10
303085.065737
 20
5261013.707506
 30
46.059000
 70
    32
  0
SEQEND
  5
667
330
656
100
AcDbEntity
  0
POLYLINE
  5
668
100
AcDbEntity
  8
BLDG - DECK
  6
Solid
 48
5.000000
100
AcDb3dPolyline
 66
     1
 10
0.0
 20
0.0
 30
0.0
 70
     8
 75
     0
  0
VERTEX
  5
669
330
668
100
AcDbEntity
  8
Lines
100
AcDbVertex
100
AcDb3dPolylineVertex
 10
303086.732330
 20
5261011.517117
 30
46.866053
 70
    32
  0
VERTEX
  5
670
330
668
100
AcDbEntity
  8
Lines
100
AcDbVertex
100
AcDb3dPolylineVertex
 10
303083.469707
 20
5261016.090785
 30
46.840831
 70
    32
  0
VERTEX
  5
671
330
668
100
AcDbEntity
  8
Lines
100
AcDbVertex
100
AcDb3dPolylineVertex
 10
303084.349984
 20
5261016.774252
 30
47.151650
 70
    32
  0
VERTEX
  5
672
330
668
100
AcDbEntity
  8
Lines
100
AcDbVertex
100
AcDb3dPolylineVertex
 10
303083.336942
 20
5261018.127842
 30
47.117002
 70
    32
  0
SEQEND
  5
673
330
668
100
AcDbEntity
  0
POLYLINE
  5
674
100
AcDbEntity
  8
DWAY
  6
Solid
 48
5.000000
100
AcDb3dPolyline
 66
     1
 10
0.0
 20
0.0
 30
0.0
 70
     8
 75
     0
  0
VERTEX
  5
675
330
674
100
AcDbEntity
  8
Lines
100
AcDbVertex
100
AcDb3dPolylineVertex
 10
303089.247973
 20
5261012.987726
 30
45.278843
 70
    32
  0
VERTEX
  5
676
330
674
100
AcDbEntity
  8
Lines
100
AcDbVertex
100
AcDb3dPolylineVertex
 10
303086.836075
 20
5261011.351299
 30
45.039178
 70
    32
  0
VERTEX
  5
677
330
674
100
AcDbEntity
  8
Lines
100
AcDbVertex
100
AcDb3dPolylineVertex
 10
303085.760706
 20
5261012.493059
 30
44.972066
 70
    32
  0
VERTEX
  5
678
330
674
100
AcDbEntity
  8
Lines
100
AcDbVertex
100
AcDb3dPolylineVertex
 10
303085.025226
 20
5261011.934155
 30
45.037415
 70
    32
  0
VERTEX
  5
679
330
674
100
AcDbEntity
  8
Lines
100
AcDbVertex
100
AcDb3dPolylineVertex
 10
303085.927251
 20
5261010.521531
 30
45.142904
 70
    32
  0
SEQEND
  5
680
330
674
100
AcDbEntity
  0
POLYLINE
  5
681
100
AcDbEntity
  8
DWAY
  6
Solid
 48
5.000000
100
AcDb3dPolyline
 66
     1
 10
0.0
 20
0.0
 30
0.0
 70
     8
 75
     0
  0
VERTEX
  5
682
330
681
100
AcDbEntity
  8
Lines
100
AcDbVertex
100
AcDb3dPolylineVertex
 10
303078.301944
 20
5260995.840580
 30
45.083280
 70
    32
  0
VERTEX
  5
683
330
681
100
AcDbEntity
  8
Lines
100
AcDbVertex
100
AcDb3dPolylineVertex
 10
303072.376476
 20
5261005.309422
 30
44.839234
 70
    32
  0
VERTEX
  5
684
330
681
100
AcDbEntity
  8
Lines
100
AcDbVertex
100
AcDb3dPolylineVertex
 10
303070.822243
 20
5261007.961332
 30
44.710991
 70
    32
  0
VERTEX
  5
685
330
681
100
AcDbEntity
  8
Lines
100
AcDbVertex
100
AcDb3dPolylineVertex
 10
303069.951156
 20
5261010.066489
 30
44.666381
 70
    32
  0
VERTEX
  5
686
330
681
100
AcDbEntity
  8
Lines
100
AcDbVertex
100
AcDb3dPolylineVertex
 10
303069.133809
 20
5261012.220080
 30
44.634465
 70
    32
  0
VERTEX
  5
687
330
681
100
AcDbEntity
  8
Lines
100
AcDbVertex
100
AcDb3dPolylineVertex
 10
303068.574399
 20
5261013.596777
 30
44.661251
 70
    32
  0
SEQEND
  5
688
330
681
100
AcDbEntity
  0
POLYLINE
  5
689
100
AcDbEntity
  8
DWAY
  6
Solid
 48
5.000000
100
AcDb3dPolyline
 66
     1
 10
0.0
 20
0.0
 30
0.0
 70
     8
 75
     0
  0
VERTEX
  5
690
330
689
100
AcDbEntity
  8
Lines
100
AcDbVertex
100
AcDb3dPolylineVertex
 10
303071.869385
 20
5261018.613921
 30
44.645374
 70
    32
  0
VERTEX
  5
691
330
689
100
AcDbEntity
  8
Lines
100
AcDbVertex
100
AcDb3dPolylineVertex
 10
303071.947932
 20
5261018.671311
 30
44.651463
 70
    32
  0
VERTEX
  5
692
330
689
100
AcDbEntity
  8
Lines
100
AcDbVertex
100
AcDb3dPolylineVertex
 10
303072.034812
 20
5261018.715074
 30
44.657552
 70
    32
  0
VERTEX
  5
693
330
689
100
AcDbEntity
  8
Lines
100
AcDbVertex
100
AcDb3dPolylineVertex
 10
303072.127683
 20
5261018.744030
 30
44.663641
 70
    32
  0
VERTEX
  5
694
330
689
100
AcDbEntity
  8
Lines
100
AcDbVertex
100
AcDb3dPolylineVertex
 10
303072.224040
 20
5261018.757398
 30
44.669730
 70
    32
  0
VERTEX
  5
695
330
689
100
AcDbEntity
  8
Lines
100
AcDbVertex
100
AcDb3dPolylineVertex
 10
303072.321285
 20
5261018.754817
 30
44.675819
 70
    32
  0
VERTEX
  5
696
330
689
100
AcDbEntity
  8
Lines
100
AcDbVertex
100
AcDb3dPolylineVertex
 10
303072.416797
 20
5261018.736358
 30
44.681908
 70
    32
  0
VERTEX
  5
697
330
689
100
AcDbEntity
  8
Lines
100
AcDbVertex
100
AcDb3dPolylineVertex
 10
303072.508002
 20
5261018.702518
 30
44.687997
 70
    32
  0
VERTEX
  5
698
330
689
100
AcDbEntity
  8
Lines
100
AcDbVertex
100
AcDb3dPolylineVertex
 10
303072.592439
 20
5261018.654209
 30
44.694086
 70
    32
  0
VERTEX
  5
699
330
689
100
AcDbEntity
  8
Lines
100
AcDbVertex
100
AcDb3dPolylineVertex
 10
303072.667832
 20
5261018.592734
 30
44.700175
 70
    32
  0
VERTEX
  5
700
330
689
100
AcDbEntity
  8
Lines
100
AcDbVertex
100
AcDb3dPolylineVertex
 10
303072.732149
 20
5261018.519750
 30
44.706264
 70
    32
  0
VERTEX
  5
701
330
689
100
AcDbEntity
  8
Lines
100
AcDbVertex
100
AcDb3dPolylineVertex
 10
303072.783656
 20
5261018.437225
 30
44.712353
 70
    32
  0
VERTEX
  5
702
330
689
100
AcDbEntity
  8
Lines
100
AcDbVertex
100
AcDb3dPolylineVertex
 10
303072.820964
 20
5261018.347384
 30
44.718442
 70
    32
  0
VERTEX
  5
703
330
689
100
AcDbEntity
  8
Lines
100
AcDbVertex
100
AcDb3dPolylineVertex
 10
303072.836823
 20
5261018.287567
 30
44.722312
 70
    32
  0
VERTEX
  5
704
330
689
100
AcDbEntity
  8
Lines
100
AcDbVertex
100
AcDb3dPolylineVertex
 10
303075.278259
 20
5261015.003895
 30
44.756868
 70
    32
  0
SEQEND
  5
705
330
689
100
AcDbEntity
  0
POLYLINE
  5
706
100
AcDbEntity
  8
BLDG - EXT
  6
Solid
 48
5.000000
100
AcDb3dPolyline
 66
     1
 10
0.0
 20
0.0
 30
0.0
 70
     8
 75
     0
  0
VERTEX
  5
707
330
706
100
AcDbEntity
  8
Lines
100
AcDbVertex
100
AcDb3dPolylineVertex
 10
303072.074814
 20
5261016.575909
 30
44.692203
 70
    32
  0
VERTEX
  5
708
330
706
100
AcDbEntity
  8
Lines
100
AcDbVertex
100
AcDb3dPolylineVertex
 10
303068.272428
 20
5261013.801324
 30
44.507187
 70
    32
  0
VERTEX
  5
709
330
706
100
AcDbEntity
  8
Lines
100
AcDbVertex
100
AcDb3dPolylineVertex
 10
303068.136404
 20
5261021.548240
 30
44.433567
 70
    32
  0
SEQEND
  5
710
330
706
100
AcDbEntity
  0
POLYLINE
  5
711
100
AcDbEntity
  8
FENCE
  6
Solid
 48
5.000000
100
AcDb3dPolyline
 66
     1
 10
0.0
 20
0.0
 30
0.0
 70
     8
 75
     0
  0
VERTEX
  5
712
330
711
100
AcDbEntity
  8
Lines
100
AcDbVertex
100
AcDb3dPolylineVertex
 10
303078.864645
 20
5261028.204526
 30
45.555322
 70
    32
  0
VERTEX
  5
713
330
711
100
AcDbEntity
  8
Lines
100
AcDbVertex
100
AcDb3dPolylineVertex
 10
303070.519946
 20
5261024.493783
 30
44.699003
 70
    32
  0
VERTEX
  5
714
330
711
100
AcDbEntity
  8
Lines
100
AcDbVertex
100
AcDb3dPolylineVertex
 10
303061.444513
 20
5261020.609146
 30
43.983892
 70
    32
  0
VERTEX
  5
715
330
711
100
AcDbEntity
  8
Lines
100
AcDbVertex
100
AcDb3dPolylineVertex
 10
303062.656477
 20
5261018.605456
 30
44.088801
 70
    32
  0
VERTEX
  5
716
330
711
100
AcDbEntity
  8
Lines
100
AcDbVertex
100
AcDb3dPolylineVertex
 10
303067.054877
 20
5261011.071876
 30
44.358699
 70
    32
  0
VERTEX
  5
717
330
711
100
AcDbEntity
  8
Lines
100
AcDbVertex
100
AcDb3dPolylineVertex
 10
303072.052631
 20
5261002.649555
 30
44.938841
 70
    32
  0
VERTEX
  5
718
330
711
100
AcDbEntity
  8
Lines
100
AcDbVertex
100
AcDb3dPolylineVertex
 10
303073.961712
 20
5260999.629961
 30
45.350758
 70
    32
  0
VERTEX
  5
719
330
711
100
AcDbEntity
  8
Lines
100
AcDbVertex
100
AcDb3dPolylineVertex
 10
303076.199110
 20
5260996.122027
 30
45.233129
 70
    32
  0
VERTEX
  5
720
330
711
100
AcDbEntity
  8
Lines
100
AcDbVertex
100
AcDb3dPolylineVertex
 10
303077.292466
 20
5260994.331179
 30
45.287565
 70
    32
  0
SEQEND
  5
721
330
711
100
AcDbEntity
  0
POLYLINE
  5
722
100
AcDbEntity
  8
EXT-WALL
  6
Solid
 48
5.000000
100
AcDb3dPolyline
 66
     1
 10
0.0
 20
0.0
 30
0.0
 70
     8
 75
     0
  0
VERTEX
  5
723
330
722
100
AcDbEntity
  8
Lines
100
AcDbVertex
100
AcDb3dPolylineVertex
 10
303077.146598
 20
5260994.715079
 30
45.261369
 70
    32
  0
VERTEX
  5
724
330
722
100
AcDbEntity
  8
Lines
100
AcDbVertex
100
AcDb3dPolylineVertex
 10
303078.336518
 20
5260995.888352
 30
45.085190
 70
    32
  0
VERTEX
  5
725
330
722
100
AcDbEntity
  8
Lines
100
AcDbVertex
100
AcDb3dPolylineVertex
 10
303084.872221
 20
5261001.938044
 30
45.122555
 70
    32
  0
VERTEX
  5
726
330
722
100
AcDbEntity
  8
Lines
100
AcDbVertex
100
AcDb3dPolylineVertex
 10
303091.776316
 20
5261008.301134
 30
45.311632
 70
    32
  0
VERTEX
  5
727
330
722
100
AcDbEntity
  8
Lines
100
AcDbVertex
100
AcDb3dPolylineVertex
 10
303097.940895
 20
5261013.822054
 30
46.010264
 70
    32
  0
VERTEX
  5
728
330
722
100
AcDbEntity
  8
Lines
100
AcDbVertex
100
AcDb3dPolylineVertex
 10
303103.472058
 20
5261018.855635
 30
46.698029
 70
    32
  0
VERTEX
  5
729
330
722
100
AcDbEntity
  8
Lines
100
AcDbVertex
100
AcDb3dPolylineVertex
 10
303107.125377
 20
5261022.249304
 30
46.770270
 70
    32
  0
VERTEX
  5
730
330
722
100
AcDbEntity
  8
Lines
100
AcDbVertex
100
AcDb3dPolylineVertex
 10
303109.514545
 20
5261024.514418
 30
46.729450
 70
    32
  0
VERTEX
  5
731
330
722
100
AcDbEntity
  8
Lines
100
AcDbVertex
100
AcDb3dPolylineVertex
 10
303110.760480
 20
5261025.673941
 30
46.739653
 70
    32
  0
SEQEND
  5
732
330
722
100
AcDbEntity
  0
POLYLINE
  5
733
100
AcDbEntity
  8
DWAY
  6
Solid
 48
5.000000
100
AcDb3dPolyline
 66
     1
 10
0.0
 20
0.0
 30
0.0
 70
     8
 75
     0
  0
VERTEX
  5
734
330
733
100
AcDbEntity
  8
Lines
100
AcDbVertex
100
AcDb3dPolylineVertex
 10
303078.336518
 20
5260995.888352
 30
45.085190
 70
    32
  0
VERTEX
  5
735
330
733
100
AcDbEntity
  8
Lines
100
AcDbVertex
100
AcDb3dPolylineVertex
 10
303084.872221
 20
5261001.938044
 30
45.122555
 70
    32
  0
VERTEX
  5
736
330
733
100
AcDbEntity
  8
Lines
100
AcDbVertex
100
AcDb3dPolylineVertex
 10
303091.776316
 20
5261008.301134
 30
45.311632
 70
    32
  0
VERTEX
  5
737
330
733
100
AcDbEntity
  8
Lines
100
AcDbVertex
100
AcDb3dPolylineVertex
 10
303097.940895
 20
5261013.822054
 30
46.010264
 70
    32
  0
VERTEX
  5
738
330
733
100
AcDbEntity
  8
Lines
100
AcDbVertex
100
AcDb3dPolylineVertex
 10
303103.472058
 20
5261018.855635
 30
46.698029
 70
    32
  0
VERTEX
  5
739
330
733
100
AcDbEntity
  8
Lines
100
AcDbVertex
100
AcDb3dPolylineVertex
 10
303107.125377
 20
5261022.249304
 30
46.770270
 70
    32
  0
VERTEX
  5
740
330
733
100
AcDbEntity
  8
Lines
100
AcDbVertex
100
AcDb3dPolylineVertex
 10
303109.514545
 20
5261024.514418
 30
46.729450
 70
    32
  0
VERTEX
  5
741
330
733
100
AcDbEntity
  8
Lines
100
AcDbVertex
100
AcDb3dPolylineVertex
 10
303110.760480
 20
5261025.673941
 30
46.739653
 70
    32
  0
SEQEND
  5
742
330
733
100
AcDbEntity
  0
ENDSEC
  0
SECTION
  2
OBJECTS
  0
DICTIONARY
  5
C
100
AcDbDictionary
280
     0
281
     0
  3
ACAD_GROUP
350
D
  3
ACAD_MLINESTYLE
350
E
  3
ACAD_LAYOUT
350
25F
  3
ACAD_PLOTSETTINGS
350
263
  3
ACAD_PLOTSTYLENAME
350
260
  3
ACAD_WIPEOUT_VARS
350
264
  0
DICTIONARY
  5
D
102
{ACAD_REACTORS
330
C
102
}
100
AcDbDictionary
280
     0
281
     0
  0
DICTIONARY
  5
E
102
{ACAD_REACTORS
330
C
102
}
100
AcDbDictionary
280
     0
281
     0
  3
STANDARD
350
1C
  0
MLINESTYLE
  5
1C
102
{ACAD_REACTORS
330
E
102
}
100
AcDbMlineStyle
  2
STANDARD
 70
     0
  3

 62
     0
 51
90.0
 52
90.0
 71
     2
 49
0.5
 62
   256
  6
ByLayer
 49
-0.5
 62
   256
  6
ByLayer
  0
ACDBDICTIONARYWDFLT
  5
260
102
{ACAD_REACTORS
330
C
102
}
100
AcDbDictionary
281
     1
  3
Normal
350
25E
100
AcDbDictionaryWithDefault
  0
ACDBPLACEHOLDER
  5
25E
102
{ACAD_REACTORS
330
260
102
}
  0
LAYOUT
  5
261
102
{ACAD_REACTORS
330
25F
102
}
100
AcDbPlotSettings
  1

  2

  4

  6

 40
0.0
 41
0.0
 42
0.0
 43
0.0
 44
0.0
 45
0.0
 46
0.0
 47
0.0
 48
0.0
 49
0.0
140
0.0
141
0.0
142
1.0
143
1.0
 70
  1024
 72
     0
 73
     0
 74
     0
  7

 75
     0
147
1.0
148
0.0
149
0.0
100
AcDbLayout
  1
Model
 70
     0
 71
     0
 10
0.0
 20
0.0
 11
0.0
 21
0.0
 12
0.0
 22
0.0
 32
0.0
 14
0.0
 24
0.0
 34
0.0
 15
0.0
 25
0.0
 35
0.0
146
0.0
 13
0.0
 23
0.0
 33
0.0
 16
0.0
 26
0.0
 36
0.0
 17
0.0
 27
0.0
 37
0.0
 76
     0
330
19
331
0
345
0
346
0
  0
LAYOUT
  5
262
102
{ACAD_REACTORS
330
25F
102
}
100
AcDbPlotSettings
  1

  2

  4

  6

 40
0.0
 41
0.0
 42
0.0
 43
0.0
 44
0.0
 45
0.0
 46
0.0
 47
0.0
 48
0.0
 49
0.0
140
0.0
141
0.0
142
1.0
143
1.0
 70
     0
 72
     0
 73
     0
 74
     0
  7

 75
     0
147
1.0
148
0.0
149
0.0
100
AcDbLayout
  1
Layout1
 70
     0
 71
     0
 10
0.0
 20
0.0
 11
0.0
 21
0.0
 12
0.0
 22
0.0
 32
0.0
 14
0.0
 24
0.0
 34
0.0
 15
0.0
 25
0.0
 35
0.0
146
0.0
 13
0.0
 23
0.0
 33
0.0
 16
0.0
 26
0.0
 36
0.0
 17
0.0
 27
0.0
 37
0.0
 76
     0
330
16
331
0
345
0
346
0
  0
DICTIONARY
  5
25F
102
{ACAD_REACTORS
330
C
102
}
100
AcDbDictionary
280
     0
281
     1
  3
Layout1
350
262
  3
Model
350
261
  0
DICTIONARY
  5
263
102
{ACAD_REACTORS
330
C
102
}
100
AcDbDictionary
280
     0
281
     1
  0
WIPEOUTVARIABLES
  5
264
100
AcDbWipeoutVariables
 70
     1
  0
ENDSEC
  0
EOF
